<svg width="408" height="216" viewBox="0 0 408 216" fill="none" xmlns="http://www.w3.org/2000/svg">
<path d="M407.489 26H0.510852C0.374332 25.9942 0.244424 25.8863 0.148943 25.6994C0.0534623 25.5125 0 25.2614 0 25C0 24.7386 0.0534623 24.4875 0.148943 24.3006C0.244424 24.1137 0.374332 24.0058 0.510852 24H407.489C407.626 24.0058 407.756 24.1137 407.851 24.3006C407.947 24.4875 408 24.7386 408 25C408 25.2614 407.947 25.5125 407.851 25.6994C407.756 25.8863 407.626 25.9942 407.489 26V26Z" fill="#CACACA"/>
<path d="M12 16C15.3137 16 18 12.4183 18 8C18 3.58172 15.3137 0 12 0C8.68629 0 6 3.58172 6 8C6 12.4183 8.68629 16 12 16Z" fill="#3F3D56"/>
<path d="M31.5 16C34.5376 16 37 12.4183 37 8C37 3.58172 34.5376 0 31.5 0C28.4624 0 26 3.58172 26 8C26 12.4183 28.4624 16 31.5 16Z" fill="#3F3D56"/>
<path d="M50.5 16C53.5376 16 56 12.4183 56 8C56 3.58172 53.5376 0 50.5 0C47.4624 0 45 3.58172 45 8C45 12.4183 47.4624 16 50.5 16Z" fill="#3F3D56"/>
<path d="M396.903 5H382.097C381.804 4.99139 381.525 4.82957 381.32 4.54921C381.115 4.26884 381 3.89221 381 3.5C381 3.10779 381.115 2.73116 381.32 2.45079C381.525 2.17043 381.804 2.00861 382.097 2H396.903C397.196 2.00861 397.475 2.17043 397.68 2.45079C397.885 2.73116 398 3.10779 398 3.5C398 3.89221 397.885 4.26884 397.68 4.54921C397.475 4.82957 397.196 4.99139 396.903 5Z" fill="#3F3D56"/>
<path d="M396.903 10H382.097C381.804 9.99134 381.525 9.82952 381.32 9.54915C381.115 9.26879 381 8.89219 381 8.50001C381 8.10782 381.115 7.73122 381.32 7.45086C381.525 7.1705 381.804 7.00866 382.097 7H396.903C397.196 7.00866 397.475 7.1705 397.68 7.45086C397.885 7.73122 398 8.10782 398 8.50001C398 8.89219 397.885 9.26879 397.68 9.54915C397.475 9.82952 397.196 9.99134 396.903 10V10Z" fill="#3F3D56"/>
<path d="M396.903 15H382.097C381.804 14.9942 381.525 14.8863 381.32 14.6994C381.115 14.5125 381 14.2615 381 14C381 13.7385 381.115 13.4875 381.32 13.3006C381.525 13.1137 381.804 13.0058 382.097 13H396.903C397.196 13.0058 397.475 13.1137 397.68 13.3006C397.885 13.4875 398 13.7385 398 14C398 14.2615 397.885 14.5125 397.68 14.6994C397.475 14.8863 397.196 14.9942 396.903 15V15Z" fill="#3F3D56"/>
<path d="M392.76 55H17.2397C16.6832 55.0008 16.132 54.872 15.6176 54.6211C15.1033 54.3702 14.6358 54.002 14.2421 53.5376C13.8483 53.0733 13.5359 52.5218 13.3228 51.9148C13.1097 51.3078 13 50.6571 13 50C13 49.3429 13.1097 48.6922 13.3228 48.0852C13.5359 47.4782 13.8483 46.9268 14.2421 46.4624C14.6358 45.998 15.1033 45.6298 15.6176 45.3789C16.132 45.128 16.6832 44.9992 17.2397 45H392.76C393.317 44.9992 393.868 45.128 394.382 45.3789C394.897 45.6298 395.364 45.998 395.758 46.4624C396.152 46.9268 396.464 47.4782 396.677 48.0852C396.89 48.6922 397 49.3429 397 50C397 50.6571 396.89 51.3078 396.677 51.9148C396.464 52.5218 396.152 53.0733 395.758 53.5376C395.364 54.002 394.897 54.3702 394.382 54.6211C393.868 54.872 393.317 55.0008 392.76 55V55Z" fill="#6C63FF"/>
<path d="M392.765 74H17.235C16.1118 74 15.0346 73.4732 14.2404 72.5355C13.4462 71.5979 13 70.3261 13 69C13 67.6739 13.4462 66.4022 14.2404 65.4645C15.0346 64.5268 16.1118 64 17.235 64H392.765C393.888 64 394.965 64.5268 395.76 65.4645C396.554 66.4022 397 67.6739 397 69C397 70.3261 396.554 71.5979 395.76 72.5355C394.965 73.4732 393.888 74 392.765 74V74Z" fill="#6C63FF"/>
<path d="M303.976 94H17.0244C15.9571 94 14.9334 93.4732 14.1787 92.5355C13.424 91.5978 13 90.3261 13 89C13 87.6739 13.424 86.4022 14.1787 85.4645C14.9334 84.5268 15.9571 84 17.0244 84H303.976C305.043 84 306.067 84.5268 306.821 85.4645C307.576 86.4022 308 87.6739 308 89C308 90.3261 307.576 91.5978 306.821 92.5355C306.067 93.4732 305.043 94 303.976 94V94Z" fill="#6C63FF"/>
<path d="M127.824 126.064V196H119.376C118.128 196 117.072 195.808 116.208 195.424C115.376 195.008 114.544 194.304 113.712 193.312L80.736 151.6C80.864 152.848 80.944 154.064 80.976 155.248C81.04 156.4 81.072 157.488 81.072 158.512V196H66.768V126.064H75.312C76.016 126.064 76.608 126.096 77.088 126.16C77.568 126.224 78 126.352 78.384 126.544C78.768 126.704 79.136 126.944 79.488 127.264C79.84 127.584 80.24 128.016 80.688 128.56L113.952 170.56C113.792 169.216 113.68 167.92 113.616 166.672C113.552 165.392 113.52 164.192 113.52 163.072V126.064H127.824ZM157.713 196H141.393V126.064H157.713V196ZM232.262 126.064V196H223.814C222.566 196 221.51 195.808 220.646 195.424C219.814 195.008 218.982 194.304 218.15 193.312L185.174 151.6C185.302 152.848 185.382 154.064 185.414 155.248C185.478 156.4 185.51 157.488 185.51 158.512V196H171.206V126.064H179.75C180.454 126.064 181.046 126.096 181.526 126.16C182.006 126.224 182.438 126.352 182.822 126.544C183.206 126.704 183.574 126.944 183.926 127.264C184.278 127.584 184.678 128.016 185.126 128.56L218.39 170.56C218.23 169.216 218.118 167.92 218.054 166.672C217.99 165.392 217.958 164.192 217.958 163.072V126.064H232.262ZM274.775 170.656C274.775 174.56 274.279 178.112 273.287 181.312C272.327 184.512 270.855 187.264 268.871 189.568C266.919 191.84 264.455 193.616 261.479 194.896C258.503 196.144 254.999 196.768 250.967 196.768C249.143 196.768 247.335 196.672 245.543 196.48C243.783 196.288 241.943 195.968 240.023 195.52L240.887 186.064C240.983 185.232 241.319 184.56 241.895 184.048C242.471 183.536 243.287 183.28 244.343 183.28C244.887 183.28 245.559 183.376 246.359 183.568C247.159 183.728 248.119 183.808 249.239 183.808C250.807 183.808 252.167 183.6 253.319 183.184C254.503 182.736 255.479 182.016 256.247 181.024C257.015 180 257.591 178.672 257.975 177.04C258.359 175.408 258.551 173.392 258.551 170.992V126.064H274.775V170.656ZM323.478 169.264L316.998 150.112C316.518 148.896 316.006 147.472 315.462 145.84C314.918 144.176 314.374 142.384 313.83 140.464C313.35 142.416 312.838 144.224 312.294 145.888C311.75 147.552 311.238 148.992 310.758 150.208L304.326 169.264H323.478ZM349.254 196H336.678C335.27 196 334.134 195.68 333.27 195.04C332.406 194.368 331.75 193.52 331.302 192.496L327.174 180.304H300.582L296.454 192.496C296.102 193.392 295.462 194.208 294.534 194.944C293.638 195.648 292.518 196 291.174 196H278.502L305.574 126.064H322.182L349.254 196Z" fill="#20CAE1"/>
<path d="M127.824 126.064H128.824V125.064H127.824V126.064ZM127.824 196V197H128.824V196H127.824ZM116.208 195.424L115.761 196.318L115.781 196.329L115.802 196.338L116.208 195.424ZM113.712 193.312L112.928 193.932L112.937 193.944L112.946 193.955L113.712 193.312ZM80.736 151.6L81.5205 150.98L79.3909 148.286L79.7412 151.702L80.736 151.6ZM80.976 155.248L79.9764 155.275L79.9768 155.289L79.9775 155.303L80.976 155.248ZM81.072 196V197H82.072V196H81.072ZM66.768 196H65.768V197H66.768V196ZM66.768 126.064V125.064H65.768V126.064H66.768ZM77.088 126.16L76.9558 127.151L76.9558 127.151L77.088 126.16ZM78.384 126.544L77.9368 127.438L77.9676 127.454L77.9994 127.467L78.384 126.544ZM80.688 128.56L81.4719 127.939L81.466 127.932L81.4599 127.924L80.688 128.56ZM113.952 170.56L113.168 171.181L115.363 173.952L114.945 170.442L113.952 170.56ZM113.616 166.672L112.617 166.722L112.617 166.723L113.616 166.672ZM113.52 126.064V125.064H112.52V126.064H113.52ZM126.824 126.064V196H128.824V126.064H126.824ZM127.824 195H119.376V197H127.824V195ZM119.376 195C118.225 195 117.316 194.822 116.614 194.51L115.802 196.338C116.828 196.794 118.031 197 119.376 197V195ZM116.655 194.53C115.984 194.194 115.254 193.595 114.478 192.669L112.946 193.955C113.834 195.013 114.768 195.822 115.761 196.318L116.655 194.53ZM114.496 192.692L81.5205 150.98L79.9515 152.22L112.928 193.932L114.496 192.692ZM79.7412 151.702C79.8668 152.927 79.9451 154.117 79.9764 155.275L81.9756 155.221C81.9429 154.011 81.8612 152.769 81.7308 151.498L79.7412 151.702ZM79.9775 155.303C80.0406 156.439 80.072 157.509 80.072 158.512H82.072C82.072 157.467 82.0394 156.361 81.9745 155.193L79.9775 155.303ZM80.072 158.512V196H82.072V158.512H80.072ZM81.072 195H66.768V197H81.072V195ZM67.768 196V126.064H65.768V196H67.768ZM66.768 127.064H75.312V125.064H66.768V127.064ZM75.312 127.064C75.9897 127.064 76.5344 127.095 76.9558 127.151L77.2202 125.169C76.6816 125.097 76.0423 125.064 75.312 125.064V127.064ZM76.9558 127.151C77.3401 127.202 77.6635 127.302 77.9368 127.438L78.8312 125.65C78.3365 125.402 77.7959 125.246 77.2202 125.169L76.9558 127.151ZM77.9994 127.467C78.2636 127.577 78.5361 127.75 78.8153 128.004L80.1607 126.524C79.7359 126.138 79.2724 125.831 78.7686 125.621L77.9994 127.467ZM78.8153 128.004C79.1193 128.28 79.4856 128.673 79.9161 129.196L81.4599 127.924C80.9944 127.359 80.5607 126.888 80.1607 126.524L78.8153 128.004ZM79.9041 129.181L113.168 171.181L114.736 169.939L81.4719 127.939L79.9041 129.181ZM114.945 170.442C114.787 169.118 114.677 167.845 114.615 166.621L112.617 166.723C112.683 167.995 112.797 169.314 112.959 170.678L114.945 170.442ZM114.615 166.622C114.551 165.356 114.52 164.173 114.52 163.072H112.52C112.52 164.211 112.553 165.428 112.617 166.722L114.615 166.622ZM114.52 163.072V126.064H112.52V163.072H114.52ZM113.52 127.064H127.824V125.064H113.52V127.064ZM157.713 196V197H158.713V196H157.713ZM141.393 196H140.393V197H141.393V196ZM141.393 126.064V125.064H140.393V126.064H141.393ZM157.713 126.064H158.713V125.064H157.713V126.064ZM157.713 195H141.393V197H157.713V195ZM142.393 196V126.064H140.393V196H142.393ZM141.393 127.064H157.713V125.064H141.393V127.064ZM156.713 126.064V196H158.713V126.064H156.713ZM232.262 126.064H233.262V125.064H232.262V126.064ZM232.262 196V197H233.262V196H232.262ZM220.646 195.424L220.198 196.318L220.219 196.329L220.239 196.338L220.646 195.424ZM218.15 193.312L217.365 193.932L217.374 193.944L217.383 193.955L218.15 193.312ZM185.174 151.6L185.958 150.98L183.828 148.286L184.179 151.702L185.174 151.6ZM185.414 155.248L184.414 155.275L184.414 155.289L184.415 155.303L185.414 155.248ZM185.51 196V197H186.51V196H185.51ZM171.206 196H170.206V197H171.206V196ZM171.206 126.064V125.064H170.206V126.064H171.206ZM181.526 126.16L181.393 127.151L181.393 127.151L181.526 126.16ZM182.822 126.544L182.374 127.438L182.405 127.454L182.437 127.467L182.822 126.544ZM185.126 128.56L185.909 127.939L185.903 127.932L185.897 127.924L185.126 128.56ZM218.39 170.56L217.606 171.181L219.8 173.952L219.382 170.442L218.39 170.56ZM218.054 166.672L217.055 166.722L217.055 166.723L218.054 166.672ZM217.958 126.064V125.064H216.958V126.064H217.958ZM231.262 126.064V196H233.262V126.064H231.262ZM232.262 195H223.814V197H232.262V195ZM223.814 195C222.663 195 221.754 194.822 221.052 194.51L220.239 196.338C221.265 196.794 222.468 197 223.814 197V195ZM221.093 194.53C220.421 194.194 219.692 193.595 218.916 192.669L217.383 193.955C218.271 195.013 219.206 195.822 220.198 196.318L221.093 194.53ZM218.934 192.692L185.958 150.98L184.389 152.22L217.365 193.932L218.934 192.692ZM184.179 151.702C184.304 152.927 184.383 154.117 184.414 155.275L186.413 155.221C186.38 154.011 186.299 152.769 186.168 151.498L184.179 151.702ZM184.415 155.303C184.478 156.439 184.51 157.509 184.51 158.512H186.51C186.51 157.467 186.477 156.361 186.412 155.193L184.415 155.303ZM184.51 158.512V196H186.51V158.512H184.51ZM185.51 195H171.206V197H185.51V195ZM172.206 196V126.064H170.206V196H172.206ZM171.206 127.064H179.75V125.064H171.206V127.064ZM179.75 127.064C180.427 127.064 180.972 127.095 181.393 127.151L181.658 125.169C181.119 125.097 180.48 125.064 179.75 125.064V127.064ZM181.393 127.151C181.778 127.202 182.101 127.302 182.374 127.438L183.269 125.65C182.774 125.402 182.233 125.246 181.658 125.169L181.393 127.151ZM182.437 127.467C182.701 127.577 182.974 127.75 183.253 128.004L184.598 126.524C184.173 126.138 183.71 125.831 183.206 125.621L182.437 127.467ZM183.253 128.004C183.557 128.28 183.923 128.673 184.354 129.196L185.897 127.924C185.432 127.359 184.998 126.888 184.598 126.524L183.253 128.004ZM184.342 129.181L217.606 171.181L219.173 169.939L185.909 127.939L184.342 129.181ZM219.382 170.442C219.225 169.118 219.115 167.845 219.052 166.621L217.055 166.723C217.12 167.995 217.234 169.314 217.397 170.678L219.382 170.442ZM219.052 166.622C218.989 165.356 218.958 164.173 218.958 163.072H216.958C216.958 164.211 216.99 165.428 217.055 166.722L219.052 166.622ZM218.958 163.072V126.064H216.958V163.072H218.958ZM217.958 127.064H232.262V125.064H217.958V127.064ZM273.287 181.312L272.331 181.016L272.329 181.025L273.287 181.312ZM268.871 189.568L268.113 188.915L268.112 188.916L268.871 189.568ZM261.479 194.896L261.865 195.818L261.874 195.815L261.479 194.896ZM245.543 196.48L245.434 197.474L245.436 197.474L245.543 196.48ZM240.023 195.52L239.027 195.429L238.947 196.296L239.795 196.494L240.023 195.52ZM240.887 186.064L239.893 185.949L239.892 185.961L239.891 185.973L240.887 186.064ZM246.359 183.568L246.125 184.54L246.144 184.545L246.162 184.549L246.359 183.568ZM253.319 183.184L253.658 184.125L253.665 184.122L253.672 184.119L253.319 183.184ZM256.247 181.024L257.037 181.636L257.042 181.63L257.047 181.624L256.247 181.024ZM258.551 126.064V125.064H257.551V126.064H258.551ZM274.775 126.064H275.775V125.064H274.775V126.064ZM273.775 170.656C273.775 174.476 273.289 177.926 272.331 181.016L274.242 181.608C275.268 178.298 275.775 174.644 275.775 170.656H273.775ZM272.329 181.025C271.405 184.104 269.996 186.728 268.113 188.915L269.628 190.221C271.713 187.8 273.248 184.92 274.244 181.599L272.329 181.025ZM268.112 188.916C266.267 191.064 263.931 192.753 261.083 193.977L261.874 195.815C264.978 194.479 267.57 192.616 269.629 190.22L268.112 188.916ZM261.092 193.974C258.265 195.159 254.898 195.768 250.967 195.768V197.768C255.099 197.768 258.74 197.129 261.865 195.818L261.092 193.974ZM250.967 195.768C249.178 195.768 247.405 195.674 245.649 195.486L245.436 197.474C247.264 197.67 249.107 197.768 250.967 197.768V195.768ZM245.651 195.486C243.935 195.299 242.135 194.986 240.25 194.546L239.795 196.494C241.75 196.95 243.63 197.277 245.434 197.474L245.651 195.486ZM241.018 195.611L241.882 186.155L239.891 185.973L239.027 195.429L241.018 195.611ZM241.88 186.179C241.95 185.568 242.183 185.129 242.559 184.795L241.23 183.301C240.454 183.991 240.015 184.896 239.893 185.949L241.88 186.179ZM242.559 184.795C242.894 184.498 243.44 184.28 244.343 184.28V182.28C243.133 182.28 242.047 182.574 241.23 183.301L242.559 184.795ZM244.343 184.28C244.779 184.28 245.367 184.358 246.125 184.54L246.592 182.596C245.75 182.394 244.994 182.28 244.343 182.28V184.28ZM246.162 184.549C247.046 184.725 248.075 184.808 249.239 184.808V182.808C248.162 182.808 247.271 182.731 246.555 182.587L246.162 184.549ZM249.239 184.808C250.891 184.808 252.372 184.589 253.658 184.125L252.979 182.243C251.961 182.611 250.722 182.808 249.239 182.808V184.808ZM253.672 184.119C255.027 183.607 256.155 182.776 257.037 181.636L255.456 180.412C254.802 181.256 253.978 181.865 252.965 182.249L253.672 184.119ZM257.047 181.624C257.919 180.461 258.542 178.996 258.948 177.269L257.001 176.811C256.639 178.348 256.11 179.539 255.447 180.424L257.047 181.624ZM258.948 177.269C259.355 175.537 259.551 173.439 259.551 170.992H257.551C257.551 173.345 257.362 175.279 257.001 176.811L258.948 177.269ZM259.551 170.992V126.064H257.551V170.992H259.551ZM258.551 127.064H274.775V125.064H258.551V127.064ZM273.775 126.064V170.656H275.775V126.064H273.775ZM323.478 169.264V170.264H324.872L324.425 168.944L323.478 169.264ZM316.998 150.112L317.945 149.792L317.937 149.768L317.928 149.745L316.998 150.112ZM315.462 145.84L314.511 146.151L314.513 146.156L315.462 145.84ZM313.83 140.464L314.792 140.191L313.762 136.554L312.859 140.225L313.83 140.464ZM312.294 145.888L313.244 146.199L313.244 146.199L312.294 145.888ZM310.758 150.208L309.828 149.841L309.819 149.864L309.811 149.888L310.758 150.208ZM304.326 169.264L303.379 168.944L302.933 170.264H304.326V169.264ZM349.254 196V197H350.713L350.187 195.639L349.254 196ZM333.27 195.04L332.656 195.829L332.665 195.837L332.675 195.844L333.27 195.04ZM331.302 192.496L330.355 192.817L330.369 192.857L330.386 192.897L331.302 192.496ZM327.174 180.304L328.121 179.983L327.891 179.304H327.174V180.304ZM300.582 180.304V179.304H299.865L299.635 179.983L300.582 180.304ZM296.454 192.496L297.385 192.862L297.394 192.839L297.401 192.817L296.454 192.496ZM294.534 194.944L295.152 195.73L295.155 195.727L294.534 194.944ZM278.502 196L277.569 195.639L277.043 197H278.502V196ZM305.574 126.064V125.064H304.889L304.641 125.703L305.574 126.064ZM322.182 126.064L323.115 125.703L322.867 125.064H322.182V126.064ZM324.425 168.944L317.945 149.792L316.051 150.432L322.531 169.584L324.425 168.944ZM317.928 149.745C317.456 148.55 316.951 147.144 316.411 145.524L314.513 146.156C315.061 147.8 315.58 149.242 316.068 150.479L317.928 149.745ZM316.412 145.529C315.873 143.879 315.333 142.1 314.792 140.191L312.868 140.737C313.415 142.668 313.963 144.473 314.512 146.151L316.412 145.529ZM312.859 140.225C312.384 142.156 311.879 143.94 311.344 145.577L313.244 146.199C313.797 144.508 314.316 142.676 314.801 140.703L312.859 140.225ZM311.344 145.577C310.804 147.228 310.299 148.648 309.828 149.841L311.688 150.575C312.177 149.336 312.696 147.876 313.244 146.199L311.344 145.577ZM309.811 149.888L303.379 168.944L305.273 169.584L311.705 150.528L309.811 149.888ZM304.326 170.264H323.478V168.264H304.326V170.264ZM349.254 195H336.678V197H349.254V195ZM336.678 195C335.418 195 334.51 194.714 333.865 194.236L332.675 195.844C333.758 196.646 335.122 197 336.678 197V195ZM333.884 194.251C333.154 193.683 332.601 192.97 332.218 192.095L330.386 192.897C330.899 194.07 331.658 195.053 332.656 195.829L333.884 194.251ZM332.249 192.175L328.121 179.983L326.227 180.625L330.355 192.817L332.249 192.175ZM327.174 179.304H300.582V181.304H327.174V179.304ZM299.635 179.983L295.507 192.175L297.401 192.817L301.529 180.625L299.635 179.983ZM295.523 192.13C295.249 192.828 294.734 193.509 293.913 194.161L295.155 195.727C296.19 194.907 296.955 193.956 297.385 192.862L295.523 192.13ZM293.916 194.158C293.227 194.699 292.336 195 291.174 195V197C292.7 197 294.049 196.597 295.152 195.73L293.916 194.158ZM291.174 195H278.502V197H291.174V195ZM279.435 196.361L306.507 126.425L304.641 125.703L277.569 195.639L279.435 196.361ZM305.574 127.064H322.182V125.064H305.574V127.064ZM321.249 126.425L348.321 196.361L350.187 195.639L323.115 125.703L321.249 126.425Z" fill="#6C63FF"/>
</svg>
