<svg xmlns="http://www.w3.org/2000/svg" xmlns:xlink="http://www.w3.org/1999/xlink" width="628" height="594" fill="none" xmlns:v="https://vecta.io/nano"><g clip-path="url(#A)"><path d="M628 297c.109 70.108-26.109 137.974-73.98 191.498-1.739 1.953-3.51 3.875-5.313 5.786-21.225 22.578-45.949 41.979-73.328 57.54-6.28 3.566-12.698 6.927-19.253 10.082l-1.999.945-2.402 1.12a322 322 0 0 1-51.63 18.725l-5.552 1.438c-23.368 5.848-47.373 9.121-71.536 9.753l-3.694.072-1.249.02L314 594c-25.463.018-50.834-2.891-75.556-8.663l-7.399-1.819c-12.934-3.34-25.626-7.47-37.995-12.363-6.519-2.57-12.922-5.341-19.209-8.314l-4.248-2.056c-.598-.277-1.185-.575-1.771-.863-33.51-16.729-63.561-39.029-88.714-65.833l-5.128-5.591c-27.714-31.08-48.386-67.21-60.738-106.154S-2.876 302.473 2.175 262.096s18.812-79.342 40.431-114.484 50.636-65.711 85.253-89.815l5.389-3.679 1.076-.709c31.881-21.123 67.665-36.408 105.499-45.064l6.476-1.418c40.98-8.479 83.331-9.181 124.6-2.066l6.476 1.192c37.496 7.274 73.257 21.01 105.499 40.521l2.152 1.316 4.313 2.703c42.712 27.16 77.701 63.843 101.882 106.815S628.034 248.32 628 297z" fill="#f2f2f2"/><g fill="#ccc"><path d="M234.685 450.649l-100.36 8.427-1.076.092V54.118l1.076-.709c20.916-13.838 43.542-25.206 67.374-33.852l5.128 66.902.467 6.125 5.074 66.347 1.565 20.41L234.5 448.285l.185 2.364zM482.876 46.575l2.151 1.315v411.278l-2.151-.185-99.274-8.334.184-2.364 20.568-268.944 1.564-20.41 5.074-66.347.468-6.125 5.378-70.16c23.193 7.604 45.358 17.766 66.038 30.275z"/><path d="M482.875 46.575v418.204c0 8.027-5.845 14.552-13.038 14.552H147.363c-5.954 0-11.007-4.48-12.539-10.595a15.7 15.7 0 0 1-.499-3.957V53.409l-1.076.709-5.389 3.679v406.982c-.096 6.097 2.311 11.991 6.715 16.443 2.309 2.289 5.23 3.943 8.453 4.789a17.28 17.28 0 0 0 4.335.545h322.474c1.468.001 2.93-.182 4.346-.545 8.671-2.209 15.157-10.883 15.157-21.232V50.593l-4.313-2.703-2.152-1.315z"/><path d="M486.11 86.463H131.092v6.124H486.11v-6.124z"/><path d="M239.824 8.345l6.476-1.418v166.289h-6.476V8.345zM370.9 4.861l6.476 1.192v167.163H370.9V4.861z"/><path d="M526.575 448.285H101.414c-7.728 0-15.14 2.904-20.605 8.073s-8.535 12.179-8.535 19.489 3.07 14.321 8.535 19.49 12.877 8.073 20.605 8.073h425.161a30.48 30.48 0 0 0 11.999-2.449c3.77-1.614 7.132-3.971 9.861-6.913a27.89 27.89 0 0 0 3.281-4.296 25.61 25.61 0 0 0 1.902-3.659c1.775-4.181 2.438-8.71 1.932-13.191s-2.167-8.775-4.837-12.507-6.266-6.787-10.474-8.899a30.45 30.45 0 0 0-13.664-3.211zM486.11 158.93H133.251v20.413H486.11V158.93z"/><path d="M306.443 152.806h6.475c1.559 0 3.102.29 4.542.855a11.94 11.94 0 0 1 3.851 2.433c1.102 1.043 1.977 2.281 2.573 3.643s.904 2.822.904 4.296h-30.215c0-2.977 1.251-5.833 3.477-7.939s5.245-3.288 8.393-3.288h0z"/></g><path d="M554.02 488.498c-9.439 10.579-19.648 20.52-30.553 29.752H104.533a305.31 305.31 0 0 1-30.553-29.752h480.04z" fill="#3f3d56"/><path d="M349.072 385.453h-70.536a3.62 3.62 0 0 0-1.119.164c-.765.224-1.435.674-1.91 1.284s-.731 1.349-.73 2.107v105.399h78.066V389.008a3.4 3.4 0 0 0-.289-1.362 3.55 3.55 0 0 0-.817-1.155c-.351-.33-.766-.592-1.223-.77s-.947-.269-1.442-.268zm-26.695 52a7.48 7.48 0 0 1-1.695 4.728c-1.051 1.315-2.512 2.285-4.177 2.774a8.79 8.79 0 0 1-5.104-.052c-1.654-.522-3.092-1.522-4.113-2.858s-1.573-2.943-1.578-4.592v-12.229c.02-2.078.907-4.064 2.468-5.527s3.669-2.283 5.865-2.283 4.305.821 5.866 2.283 2.448 3.449 2.468 5.527v12.229z" fill="#2f2e41"/><g fill="#3f3d56"><path d="M274.538 491.037V501.2c0 .527.221 1.033.614 1.407s.926.585 1.483.587h74.35c.556-.004 1.089-.216 1.481-.589a1.95 1.95 0 0 0 .616-1.405v-10.163h-78.544zm191.334-270.065H164.366c-2.59.003-5.074.977-6.907 2.709s-2.865 4.08-2.871 6.53v192.444c.002 2.452 1.033 4.804 2.866 6.538s4.32 2.709 6.912 2.711h301.506c2.593-.002 5.079-.977 6.912-2.711s2.864-4.086 2.866-6.538V230.211c-.006-2.45-1.038-4.798-2.871-6.53s-4.317-2.706-6.907-2.709z"/></g><path d="M463.351 227.652H166.876c-1.387.003-2.716.526-3.696 1.455s-1.53 2.186-1.53 3.498v187.676c.003 1.31.554 2.566 1.534 3.492s2.307 1.449 3.692 1.451h296.475a5.39 5.39 0 0 0 3.693-1.451c.979-.926 1.531-2.182 1.533-3.492V232.605c0-1.311-.55-2.57-1.53-3.498s-2.309-1.452-3.696-1.455z" fill="#6c63ff"/><path d="M408.787 503.03l-2.738-12.302c-.114-.501-.358-.968-.711-1.358s-.803-.689-1.31-.872c-.367-.136-.758-.206-1.152-.205H231.958c-.394-.001-.785.069-1.152.205-.507.183-.957.483-1.31.872s-.597.857-.711 1.358l-2.738 12.302a2.91 2.91 0 0 0 .022 1.351 3.01 3.01 0 0 0 .634 1.212 3.23 3.23 0 0 0 1.123.837 3.4 3.4 0 0 0 1.394.299h176.383c.484.003.962-.099 1.399-.296s.82-.487 1.122-.844a3.03 3.03 0 0 0 .637-1.209 2.92 2.92 0 0 0 .026-1.35z" fill="#2f2e41"/><g fill="#3f3d56"><use xlink:href="#B"/><path d="M248.978 490.508h-4.372c-.293 0-.53.225-.53.502v2.079c0 .277.237.502.53.502h4.372c.293 0 .53-.225.53-.502v-2.079c0-.277-.237-.502-.53-.502zm10.865 0h-4.372c-.293 0-.53.225-.53.502v2.079c0 .277.237.502.53.502h4.372c.293 0 .53-.225.53-.502v-2.079c0-.277-.237-.502-.53-.502zm10.865 0h-4.372c-.293 0-.53.225-.53.502v2.079c0 .277.237.502.53.502h4.372c.293 0 .53-.225.53-.502v-2.079c0-.277-.237-.502-.53-.502zm10.865 0h-4.372c-.293 0-.53.225-.53.502v2.079c0 .277.237.502.53.502h4.372c.293 0 .53-.225.53-.502v-2.079c0-.277-.237-.502-.53-.502zm10.865 0h-4.372c-.293 0-.53.225-.53.502v2.079c0 .277.237.502.53.502h4.372c.293 0 .531-.225.531-.502v-2.079c0-.277-.238-.502-.531-.502zm10.865 0h-4.372c-.292 0-.53.225-.53.502v2.079c0 .277.238.502.53.502h4.372c.293 0 .531-.225.531-.502v-2.079c0-.277-.238-.502-.531-.502z"/><use xlink:href="#C"/><path d="M325.033 490.508h-4.371c-.293 0-.531.225-.531.502v2.079c0 .277.238.502.531.502h4.371c.293 0 .531-.225.531-.502v-2.079c0-.277-.238-.502-.531-.502zm10.865 0h-4.371c-.293 0-.531.225-.531.502v2.079c0 .277.238.502.531.502h4.371c.293 0 .531-.225.531-.502v-2.079c0-.277-.238-.502-.531-.502zm10.865 0h-4.371c-.293 0-.531.225-.531.502v2.079c0 .277.238.502.531.502h4.371c.293 0 .531-.225.531-.502v-2.079c0-.277-.238-.502-.531-.502zm10.865 0h-4.371c-.293 0-.531.225-.531.502v2.079c0 .277.238.502.531.502h4.371c.293 0 .531-.225.531-.502v-2.079c0-.277-.238-.502-.531-.502zm10.865 0h-4.371c-.293 0-.531.225-.531.502v2.079c0 .277.238.502.531.502h4.371c.293 0 .531-.225.531-.502v-2.079c0-.277-.238-.502-.531-.502zm10.866 0h-4.372c-.293 0-.531.225-.531.502v2.079c0 .277.238.502.531.502h4.372c.292 0 .53-.225.53-.502v-2.079c0-.277-.238-.502-.53-.502zm10.865 0h-4.372c-.293 0-.531.225-.531.502v2.079c0 .277.238.502.531.502h4.372c.293 0 .53-.225.53-.502v-2.079c0-.277-.237-.502-.53-.502zm10.865 0h-4.372c-.293 0-.53.225-.53.502v2.079c0 .277.237.502.53.502h4.372c.293 0 .53-.225.53-.502v-2.079c0-.277-.237-.502-.53-.502z"/><use xlink:href="#D"/><path d="M248.849 495.646h-4.371c-.293 0-.531.225-.531.502v2.08c0 .277.238.502.531.502h4.371c.293 0 .531-.225.531-.502v-2.08c0-.277-.238-.502-.531-.502zm10.866 0h-4.372c-.293 0-.531.225-.531.502v2.08c0 .277.238.502.531.502h4.372c.293 0 .53-.225.53-.502v-2.08c0-.277-.237-.502-.53-.502z"/><use xlink:href="#E"/><path d="M281.445 495.646h-4.372c-.293 0-.53.225-.53.502v2.08c0 .277.237.502.53.502h4.372c.293 0 .53-.225.53-.502v-2.08c0-.277-.237-.502-.53-.502zm10.865 0h-4.372c-.293 0-.53.225-.53.502v2.08c0 .277.237.502.53.502h4.372c.293 0 .53-.225.53-.502v-2.08c0-.277-.237-.502-.53-.502zm10.865 0h-4.372c-.293 0-.53.225-.53.502v2.08c0 .277.237.502.53.502h4.372c.293 0 .53-.225.53-.502v-2.08c0-.277-.237-.502-.53-.502zm10.865 0h-4.372c-.293 0-.53.225-.53.502v2.08c0 .277.237.502.53.502h4.372c.293 0 .53-.225.53-.502v-2.08c0-.277-.237-.502-.53-.502zm10.865 0h-4.372c-.293 0-.53.225-.53.502v2.08c0 .277.237.502.53.502h4.372c.293 0 .53-.225.53-.502v-2.08c0-.277-.237-.502-.53-.502zm10.865 0h-4.372c-.293 0-.53.225-.53.502v2.08c0 .277.237.502.53.502h4.372c.293 0 .53-.225.53-.502v-2.08c0-.277-.237-.502-.53-.502zm10.865 0h-4.372c-.293 0-.53.225-.53.502v2.08c0 .277.237.502.53.502h4.372c.293 0 .53-.225.53-.502v-2.08c0-.277-.237-.502-.53-.502zm10.865 0h-4.372c-.293 0-.53.225-.53.502v2.08c0 .277.237.502.53.502h4.372c.293 0 .53-.225.53-.502v-2.08c0-.277-.237-.502-.53-.502z"/><use xlink:href="#F"/><path d="M379.23 495.646h-4.372c-.293 0-.53.225-.53.502v2.08c0 .277.237.502.53.502h4.372c.293 0 .531-.225.531-.502v-2.08c0-.277-.238-.502-.531-.502zm10.865 0h-4.372c-.292 0-.53.225-.53.502v2.08c0 .277.238.502.53.502h4.372c.293 0 .531-.225.531-.502v-2.08c0-.277-.238-.502-.531-.502zm10.865 0h-4.371c-.293 0-.531.225-.531.502v2.08c0 .277.238.502.531.502h4.371c.293 0 .531-.225.531-.502v-2.08c0-.277-.238-.502-.531-.502zm-72.796 6.166h-42.399c-.293 0-.53.225-.53.502v2.08c0 .277.237.502.53.502h42.399c.293 0 .531-.225.531-.502v-2.08c0-.277-.238-.502-.531-.502zm120.289-248.307h-277.41c-.289-.006-.563-.118-.765-.313s-.314-.457-.314-.73.113-.535.314-.73.476-.308.765-.314h277.41c.288.006.563.119.764.314a1.02 1.02 0 0 1 .315.73c0 .273-.113.535-.315.73s-.476.307-.764.313zm-258.527-7.415c3.571 0 6.466-2.798 6.466-6.251s-2.895-6.251-6.466-6.251-6.465 2.798-6.465 6.251 2.895 6.251 6.465 6.251zm22.335 0c3.57 0 6.465-2.798 6.465-6.251s-2.895-6.251-6.465-6.251-6.465 2.798-6.465 6.251 2.894 6.251 6.465 6.251zm22.334 0c3.571 0 6.465-2.798 6.465-6.251s-2.894-6.251-6.465-6.251-6.465 2.798-6.465 6.251 2.894 6.251 6.465 6.251zm200.409-10.956h-15.863a1.23 1.23 0 0 0-.831.341c-.219.213-.342.497-.342.794s.123.582.342.794.518.335.831.342h15.863c.316-.004.617-.126.838-.338s.346-.499.346-.798a1.1 1.1 0 0 0-.346-.797 1.23 1.23 0 0 0-.838-.338zm0 4.264h-15.863a1.24 1.24 0 0 0-.832.342c-.219.212-.342.497-.342.794s.123.582.342.794.518.335.832.342h15.863c.316-.004.618-.125.84-.338s.346-.499.346-.798-.124-.586-.346-.798a1.24 1.24 0 0 0-.84-.338zm0 4.265h-15.863c-.313.007-.612.13-.831.342s-.342.497-.342.794.123.581.342.794a1.23 1.23 0 0 0 .831.341h15.863a1.23 1.23 0 0 0 .838-.338c.222-.212.346-.499.346-.797a1.1 1.1 0 0 0-.346-.797c-.221-.213-.522-.334-.838-.339z"/></g><g fill="#e6e6e6"><use xlink:href="#G"/><path d="M260.153 277.755h-5.7c-1.728 0-3.129 1.325-3.129 2.96s1.401 2.959 3.129 2.959h5.7c1.728 0 3.129-1.325 3.129-2.959s-1.401-2.96-3.129-2.96z"/><use xlink:href="#H"/><path d="M242.421 277.261h-35.426c-1.728 0-3.129 1.326-3.129 2.96s1.401 2.96 3.129 2.96h35.426c1.728 0 3.129-1.325 3.129-2.96s-1.401-2.96-3.129-2.96zm86.921 0h-35.427c-1.728 0-3.129 1.326-3.129 2.96s1.401 2.96 3.129 2.96h35.427c1.728 0 3.129-1.325 3.129-2.96s-1.401-2.96-3.129-2.96z"/><use xlink:href="#I"/><path d="M277.537 291.115h-5.7c-1.728 0-3.129 1.325-3.129 2.959s1.401 2.96 3.129 2.96h5.7c1.728 0 3.129-1.325 3.129-2.96s-1.401-2.959-3.129-2.959zm18.471 0h-5.7c-1.728 0-3.129 1.325-3.129 2.959s1.401 2.96 3.129 2.96h5.7c1.728 0 3.129-1.325 3.129-2.96s-1.401-2.959-3.129-2.959z"/><use xlink:href="#J"/><use xlink:href="#K"/><path d="M229.731 304.475h-5.7c-1.728 0-3.129 1.325-3.129 2.959s1.401 2.96 3.129 2.96h5.7c1.728 0 3.129-1.325 3.129-2.96s-1.401-2.959-3.129-2.959zm65.19 0h-5.7c-1.728 0-3.129 1.325-3.129 2.959s1.401 2.96 3.129 2.96h5.7c1.728 0 3.129-1.325 3.129-2.96s-1.401-2.959-3.129-2.959zm18.471 0h-5.7c-1.728 0-3.129 1.325-3.129 2.959s1.401 2.96 3.129 2.96h5.7c1.728 0 3.129-1.325 3.129-2.96s-1.401-2.959-3.129-2.959zm-36.203-.494h-35.426c-1.728 0-3.129 1.325-3.129 2.96s1.401 2.96 3.129 2.96h35.426c1.728 0 3.129-1.326 3.129-2.96s-1.401-2.96-3.129-2.96zm86.921 0h-35.427c-1.728 0-3.129 1.325-3.129 2.96s1.401 2.96 3.129 2.96h35.427c1.728 0 3.129-1.326 3.129-2.96s-1.401-2.96-3.129-2.96z"/><use xlink:href="#L"/><path d="M312.305 317.834h-5.7c-1.728 0-3.129 1.326-3.129 2.96s1.401 2.96 3.129 2.96h5.7c1.728 0 3.129-1.325 3.129-2.96s-1.401-2.96-3.129-2.96zm18.471 0h-5.7c-1.728 0-3.129 1.326-3.129 2.96s1.401 2.96 3.129 2.96h5.7c1.728 0 3.129-1.325 3.129-2.96s-1.401-2.96-3.129-2.96zm-36.203-.493h-35.426c-1.728 0-3.129 1.325-3.129 2.96s1.401 2.959 3.129 2.959h35.426c1.728 0 3.129-1.325 3.129-2.959s-1.401-2.96-3.129-2.96zm-34.42 53.618h-5.7c-1.728 0-3.129 1.325-3.129 2.96s1.401 2.959 3.129 2.959h5.7c1.728 0 3.129-1.325 3.129-2.959s-1.401-2.96-3.129-2.96zm18.471 0h-5.7c-1.729 0-3.129 1.325-3.129 2.96s1.4 2.959 3.129 2.959h5.7c1.728 0 3.129-1.325 3.129-2.959s-1.401-2.96-3.129-2.96zm50.718.493h-35.427c-1.728 0-3.129 1.325-3.129 2.96s1.401 2.96 3.129 2.96h35.427c1.728 0 3.129-1.325 3.129-2.96s-1.401-2.96-3.129-2.96zm-134.379-.493h-5.7c-1.728 0-3.129 1.325-3.129 2.96s1.401 2.959 3.129 2.959h5.7c1.728 0 3.129-1.325 3.129-2.959s-1.401-2.96-3.129-2.96zm47.458.493h-35.426c-1.728 0-3.129 1.325-3.129 2.96s1.401 2.96 3.129 2.96h35.426c1.728 0 3.129-1.325 3.129-2.96s-1.401-2.96-3.129-2.96zm-30.074-13.853h-5.7c-1.728 0-3.129 1.325-3.129 2.96s1.401 2.959 3.129 2.959h5.7c1.728 0 3.129-1.325 3.129-2.959s-1.401-2.96-3.129-2.96zm65.19 0h-5.7c-1.728 0-3.129 1.325-3.129 2.96s1.401 2.959 3.129 2.959h5.7c1.728 0 3.129-1.325 3.129-2.959s-1.401-2.96-3.129-2.96zm18.471 0h-5.7c-1.728 0-3.129 1.325-3.129 2.96s1.401 2.959 3.129 2.959h5.7c1.728 0 3.129-1.325 3.129-2.959s-1.401-2.96-3.129-2.96z"/><use xlink:href="#M"/><use xlink:href="#N"/><path d="M294.921 344.239h-5.7c-1.728 0-3.129 1.325-3.129 2.96s1.401 2.96 3.129 2.96h5.7c1.728 0 3.129-1.325 3.129-2.96s-1.401-2.96-3.129-2.96zm18.471 0h-5.7c-1.728 0-3.129 1.325-3.129 2.96s1.401 2.96 3.129 2.96h5.7c1.728 0 3.129-1.325 3.129-2.96s-1.401-2.96-3.129-2.96zm-36.203.494h-35.426c-1.728 0-3.129 1.325-3.129 2.959s1.401 2.96 3.129 2.96h35.426c1.728 0 3.129-1.325 3.129-2.96s-1.401-2.959-3.129-2.959zm-30.074-13.854h-5.7c-1.728 0-3.129 1.326-3.129 2.96s1.401 2.96 3.129 2.96h5.7c1.728 0 3.129-1.325 3.129-2.96s-1.401-2.96-3.129-2.96zm65.19 0h-5.7c-1.728 0-3.129 1.326-3.129 2.96s1.401 2.96 3.129 2.96h5.7c1.728 0 3.129-1.325 3.129-2.96s-1.401-2.96-3.129-2.96zm18.471 0h-5.7c-1.728 0-3.129 1.326-3.129 2.96s1.401 2.96 3.129 2.96h5.7c1.728 0 3.129-1.325 3.129-2.96s-1.401-2.96-3.129-2.96zm-36.203.494h-35.426c-1.728 0-3.129 1.325-3.129 2.959s1.401 2.96 3.129 2.96h35.426c1.728 0 3.129-1.325 3.129-2.96s-1.401-2.959-3.129-2.959z"/></g><path d="M451.78 563.961l-1.999.945c-17.167 8.119-30.901 12.733-49.686 17.789-1.587-16.751-3.119-46.194-4.607-64.445-.391-4.738-.782-8.715-1.163-11.521-.096-1.491-.418-2.962-.956-4.367l.065 4.367.163 11.521.946 65.884c-23.368 5.848-47.373 9.121-71.536 9.753l-3.694.072-1.249.02L314 594c-25.463.018-50.834-2.891-75.556-8.663l1.576-67.087.315-11.521c.206-7.358.424-12.661.63-14.439-.183.315-.325.65-.424.997-1.006 4.432-1.692 8.923-2.053 13.442l-1.141 11.521c-2.021 22.228-4.129 52.452-6.302 65.268-12.934-3.34-25.626-7.47-37.995-12.363-6.519-2.57-12.922-5.341-19.209-8.314l3.727-24.295 3.085-20.296 4.998-29.752c2.477-13.195 5.02-23.801 7.54-28.672l7.095-13.555 2.391-4.512.554-1.027 4.802-8.828 3.749-6.68c2.868-5.015 5.302-9.013 7.105-11.541 7.541-10.819 18.766-18.873 31.813-22.825l.326-.082.228.092 22.219-6.453 3.249-.946 2.184-.637 7.692-5.539 4.183-3.011 3.923-2.826 7.67-5.519 47.492 2.764 9.246 21.058 20.709 7.162.358-.154.315-.123.326.082c13.045 3.956 24.269 12.009 31.813 22.825 1.021 1.449 2.26 3.361 3.662 5.673a278.27 278.27 0 0 1 3.911 6.68l6.53 11.808 1.554 2.888 2.944 5.539 7.095 13.565c2.075 4.018 4.172 12.281 6.236 22.794 1.706 8.735 3.401 19.033 5.042 29.752 2.151 13.894-.142 30.532 1.803 43.316l.37 2.395z" fill="#3f3d56"/><path d="M314.668 349.129c30.505 0 55.234-23.39 55.234-52.244s-24.729-52.244-55.234-52.244-55.234 23.391-55.234 52.244 24.729 52.244 55.234 52.244z" fill="#a0616a"/><path d="M405.755 227.652c-1.091-2.411-2.544-4.66-4.313-6.68-8.388-9.691-23.642-13.956-39.299-2.487-3.014-.637-6.156-.466-9.072.493-1.377.472-2.668 1.145-3.825 1.994-2.371 1.749-4.22 4.051-5.367 6.68-.613 1.388-1.016 2.852-1.195 4.347-3.871-1.902-7.967-3.361-12.202-4.347a69.2 69.2 0 0 0-31.65 0 41.09 41.09 0 0 0-9.539 3.576c-5.085 2.775-8.008 6.279-8.529 10.174-7.334.391-14.961 4.039-20.644 10.02a31.22 31.22 0 0 0-1.836 2.086c-4.779 5.915-7.347 13.162-7.301 20.606v1.305h1.38c3.78-.004 7.526.687 11.028 2.034a30.56 30.56 0 0 1 6.399 3.34c1.296.87 2.52 1.832 3.662 2.878a34.69 34.69 0 0 1 6.649 8.273c4.514 7.733 6.079 16.699 4.433 25.394a35.58 35.58 0 0 1-1.652 5.919c-1.026 2.749-2.378 5.38-4.03 7.841-.066.093-.12.185-.185.278-.728 1.1-1.423 2.22-2.075 3.35-.489.843-.946 1.706-1.369 2.569a51.73 51.73 0 0 0-3.13 7.441 52.41 52.41 0 0 0-2.651 13.915 39.65 39.65 0 0 0-.054 3.761c.065 3.232.439 6.451 1.119 9.619l.294 1.285.793 3.278 1.879 7.821 1.304 5.385 1.206 4.994 1.782-2.415c.609-.822 2.14-3.35 4.194-6.926l4.639-8.16 7.541-13.771 3.042-5.704 5.139-10.009c1.391-2.806 2.575-5.293 3.455-7.287a53.03 53.03 0 0 1 .674 3.967c.195 1.357.337 2.734.413 4.111.021.205.032.421.043.627l.044.843.01.246 1.152.144a106.82 106.82 0 0 0 19.992.144h.011c8.813-.628 17.459-2.61 25.598-5.868a54.12 54.12 0 0 0 12.82-7.441 43.86 43.86 0 0 0 5.064-4.645 41.06 41.06 0 0 0 1.14-1.274 41.97 41.97 0 0 0 5.487-8.119 41.59 41.59 0 0 0 2.543-5.919c4.172-11.952 3.933-26.864-.717-44.581 1.256-.229 2.459-.667 3.553-1.295 3.411-1.942 5.78-5.796 6.519-10.503l1.173.298c4.16-1.832 7.865-4.472 10.876-7.748a24.89 24.89 0 0 0 1.673-2.087c5.313-7.399 5.357-16.278 1.912-23.77z" fill="#2f2e41"/><path opacity=".2" d="M224.168 488.453l9.232-33.7 8.152 29.079-17.384 4.621z" fill="#000"/><path d="M469.837 466.496c-3.303 43.039.12 61.989-18.112 97.475a321.9 321.9 0 0 1-51.63 18.724l-5.552 1.439c-23.368 5.848-47.373 9.121-71.536 9.753l-3.694.072-1.249.02L314 594c-25.463.018-50.834-2.891-75.556-8.663l-7.399-1.819c-12.934-3.34-25.626-7.47-37.995-12.363-6.519-2.57-12.922-5.341-19.209-8.314l-4.248-2.056c-7.204-11.982-11.3-26.555-11.387-44.067 4.987-30.172 300.614-76.243 311.631-50.222z" fill="#2f2e41"/><path opacity=".2" d="M469.829 473.866l.577-8.283c-11.017-26.021-306.644 20.05-311.631 50.223a107.17 107.17 0 0 0 .349 8.072c12.077-29.78 292.927-73.568 310.705-50.012z" fill="#000"/><path d="M177.204 351.623c.072-.932-.068-1.867-.41-2.744a6.5 6.5 0 0 0-1.574-2.336c-.695-.664-1.533-1.179-2.456-1.511s-1.911-.473-2.897-.413c-.367.013-.732.056-1.092.129l-43.201 9.231c-.966.222-1.872.632-2.659 1.204s-1.44 1.295-1.914 2.121c-.634.022-1.263.109-1.877.258-1.345.288-2.616.824-3.741 1.577s-2.083 1.708-2.818 2.811a9.6 9.6 0 0 0-1.467 3.617 9.4 9.4 0 0 0 .109 3.873c.305 1.271.871 2.474 1.667 3.538s1.806 1.971 2.972 2.666a11.01 11.01 0 0 0 7.919 1.284c1.545-.339 2.991-1.001 4.231-1.936l14.64 38.99c.731 1.222 1.861 2.188 3.22 2.752s2.875.697 4.321.379l28.085-6.003c1.435-.318 2.726-1.058 3.689-2.113s1.546-2.373 1.668-3.762l-6.415-53.612zm-54.088 22.529c-1.939.414-3.972.084-5.654-.919s-2.875-2.594-3.318-4.427-.098-3.757.957-5.351 2.735-2.726 4.671-3.15c.137-.032.273 0 .41-.032a6.4 6.4 0 0 0 .921 3.357l5.358 8.844a7.2 7.2 0 0 1-3.345 1.678z" fill="#2f2e41"/><path d="M169.867 344.619c.41 5.164-8.94 11.103-21.464 13.459-11.5 2.228-21.806.678-24.707-3.389.583-.327 1.217-.567 1.878-.71l43.201-9.231c.36-.073.725-.116 1.092-.129z" fill="#3f3d56"/><path d="M139.989 475.719l24.266-11.476-20.222-51.642-5.329-26.043c-.692-3.384-2.311-6.536-4.695-9.142s-5.45-4.575-8.89-5.71-7.136-1.395-10.716-.756-6.921 2.156-9.687 4.399c-4.1 3.323-6.674 8.023-7.179 13.108s1.098 10.156 4.471 14.144l19.782 23.389 18.199 49.729z" fill="#a0616a"/><path d="M164.255 454.68L131.9 469.981l24.554 72.769c1.763 5.226 4.924 9.932 9.176 13.662s9.45 6.358 15.092 7.628c6.956 1.567 14.259.997 20.85-1.626s12.127-7.164 15.806-12.964l65.108-105.557c4.614-7.274 6.039-15.966 3.969-24.219s-7.47-15.414-15.046-19.953c-4.075-2.441-8.648-4.043-13.42-4.702s-9.639-.36-14.281.878-8.958 3.385-12.664 6.305-6.722 6.543-8.85 10.638l-39.74 80.093-18.199-38.253z" fill="#3f3d56"/><g fill="#6c63ff"><path d="M154.248 388.917a.56.56 0 0 1-.177-.028l-7.064-2.3a.55.55 0 0 1-.223-.138c-.061-.062-.105-.139-.127-.221a.49.49 0 0 1 0-.252c.022-.083.066-.159.127-.222l5.254-5.41a.55.55 0 0 1 .17-.12c.065-.028.135-.045.207-.048a.56.56 0 0 1 .21.031c.067.023.129.058.181.104a.52.52 0 0 1 .126.162c.03.061.047.128.05.195a.5.5 0 0 1-.033.199.53.53 0 0 1-.111.171l-4.693 4.832 6.279 2.046a.53.53 0 0 1 .29.223c.066.104.091.227.069.347a.51.51 0 0 1-.184.308c-.098.078-.223.121-.351.121zm9.682-1.874c-.108 0-.214-.031-.303-.088a.52.52 0 0 1-.2-.234.48.48 0 0 1-.028-.299c.022-.1.076-.191.153-.263l4.775-4.366-6.414-2.5a.57.57 0 0 1-.177-.111.53.53 0 0 1-.118-.167c-.027-.062-.042-.129-.042-.196s.014-.135.041-.197a.51.51 0 0 1 .118-.167.54.54 0 0 1 .176-.112.59.59 0 0 1 .208-.039.57.57 0 0 1 .208.039l7.181 2.799a.55.55 0 0 1 .214.15c.057.066.096.145.113.229s.011.17-.016.251a.5.5 0 0 1-.14.214l-5.371 4.912a.56.56 0 0 1-.378.145zm-8.2 5.018c-.054 0-.108-.008-.159-.023-.068-.02-.132-.053-.187-.096s-.1-.095-.134-.155a.51.51 0 0 1-.061-.192c-.006-.067.001-.135.022-.2l5.014-15.415c.043-.13.138-.238.266-.302a.57.57 0 0 1 .413-.036c.137.04.253.13.32.25a.49.49 0 0 1 .04.391l-5.014 15.415a.51.51 0 0 1-.197.262c-.093.065-.206.101-.323.101z"/></g></g><defs><clipPath id="A"><path fill="#fff" d="M0 0h628v594H0z"/></clipPath><path id="B" d="M238.113 490.508h-4.372c-.293 0-.53.225-.53.502v2.079c0 .277.237.502.53.502h4.372c.293 0 .53-.225.53-.502v-2.079c0-.277-.237-.502-.53-.502z"/><path id="C" d="M314.168 490.508h-4.371c-.293 0-.531.225-.531.502v2.079c0 .277.238.502.531.502h4.371c.293 0 .531-.225.531-.502v-2.079c0-.277-.238-.502-.531-.502z"/><path id="D" d="M237.984 495.646h-4.371c-.293 0-.531.225-.531.502v2.08c0 .277.238.502.531.502h4.371c.293 0 .531-.225.531-.502v-2.08c0-.277-.238-.502-.531-.502z"/><path id="E" d="M270.58 495.646h-4.372c-.293 0-.53.225-.53.502v2.08c0 .277.237.502.53.502h4.372c.293 0 .53-.225.53-.502v-2.08c0-.277-.237-.502-.53-.502z"/><path id="F" d="M368.365 495.646h-4.372c-.293 0-.53.225-.53.502v2.08c0 .277.237.502.53.502h4.372c.293 0 .531-.225.531-.502v-2.08c0-.277-.238-.502-.531-.502z"/><path id="G" d="M194.963 277.755h-5.7c-1.728 0-3.129 1.325-3.129 2.96s1.401 2.959 3.129 2.959h5.7c1.728 0 3.129-1.325 3.129-2.959s-1.401-2.96-3.129-2.96z"/><path id="H" d="M278.624 277.755h-5.7c-1.729 0-3.129 1.325-3.129 2.96s1.4 2.959 3.129 2.959h5.7c1.728 0 3.129-1.325 3.129-2.959s-1.401-2.96-3.129-2.96z"/><path id="I" d="M212.347 291.115h-5.7c-1.728 0-3.129 1.325-3.129 2.959s1.401 2.96 3.129 2.96h5.7c1.728 0 3.129-1.325 3.129-2.96s-1.401-2.959-3.129-2.959z"/><path id="J" d="M259.805 290.621h-35.426c-1.728 0-3.129 1.325-3.129 2.96s1.401 2.96 3.129 2.96h35.426c1.728 0 3.129-1.325 3.129-2.96s-1.401-2.96-3.129-2.96z"/><path id="K" d="M346.726 290.621h-35.427c-1.728 0-3.129 1.325-3.129 2.96s1.401 2.96 3.129 2.96h35.427c1.728 0 3.129-1.325 3.129-2.96s-1.401-2.96-3.129-2.96z"/><path id="L" d="M247.115 317.834h-5.7c-1.728 0-3.129 1.326-3.129 2.96s1.401 2.96 3.129 2.96h5.7c1.728 0 3.129-1.325 3.129-2.96s-1.401-2.96-3.129-2.96z"/><path id="M" d="M259.805 358.093h-35.426c-1.728 0-3.129 1.325-3.129 2.959s1.401 2.96 3.129 2.96h35.426c1.728 0 3.129-1.325 3.129-2.96s-1.401-2.959-3.129-2.959z"/><path id="N" d="M229.731 344.239h-5.7c-1.728 0-3.129 1.325-3.129 2.96s1.401 2.96 3.129 2.96h5.7c1.728 0 3.129-1.325 3.129-2.96s-1.401-2.96-3.129-2.96z"/></defs></svg>