<svg xmlns="http://www.w3.org/2000/svg" xmlns:xlink="http://www.w3.org/1999/xlink" width="612" height="401" fill="none" xmlns:v="https://vecta.io/nano"><style><![CDATA[.B{fill:#3f3d56}.C{fill:#2f2e41}.D{fill:#e6e6e6}]]></style><g clip-path="url(#A)"><path d="M302.854 68.17c10.253 0 18.565-8.318 18.565-18.58s-8.312-18.58-18.565-18.58-18.566 8.318-18.566 18.58 8.312 18.58 18.566 18.58z" fill="#fd6584"/><g class="D"><path d="M344.405 40.793c-.524-1.718-1.538-3.245-2.918-4.394s-3.065-1.868-4.849-2.07c-.041-.004-.083-.004-.125 0-.05-.016-.101-.027-.153-.035-6.216-.807-13.128 1.155-17.779 5.428a16.67 16.67 0 0 0-4.054 5.595 8.99 8.99 0 0 0-3.311-2.77 8.98 8.98 0 0 0-4.22-.905 9.16 9.16 0 0 0-5.147 2.011c-1.469 1.184-2.536 2.793-3.057 4.607a1.06 1.06 0 0 0 .044.668c.087.212.239.39.435.508a4.64 4.64 0 0 0 1.94.988 131.75 131.75 0 0 0 4.638.898 140.67 140.67 0 0 0 9.144 1.287c2.023.216 4.051.387 6.084.515 4.2.264 8.42.327 12.627.195 2.086-.07 4.088-.139 5.994-1.058a8.91 8.91 0 0 0 3.442-2.999 10.14 10.14 0 0 0 1.571-4.094 10.13 10.13 0 0 0-.306-4.375zm-38.194 27.069c-.036-.779-.166-1.55-.39-2.296-.526-1.718-1.542-3.245-2.923-4.393s-3.066-1.868-4.85-2.071a.59.59 0 0 0-.119 0 1.3 1.3 0 0 0-.16-.035 23.05 23.05 0 0 0-10.214 1.051c-5.048 1.691-9.477 5.101-11.612 9.972a8.99 8.99 0 0 0-3.314-2.771 8.98 8.98 0 0 0-4.223-.903 9.16 9.16 0 0 0-5.148 2.011 9.17 9.17 0 0 0-3.057 4.607c-.054.222-.037.455.049.666a1.08 1.08 0 0 0 .431.51c.56.477 1.224.816 1.94.988a130.06 130.06 0 0 0 4.644.898c3.032.529 6.078.958 9.137 1.287a135.59 135.59 0 0 0 18.718.71c2.079-.07 4.089-.139 5.994-1.058a8.88 8.88 0 0 0 3.435-2.999c1.219-1.818 1.803-3.988 1.662-6.172z"/></g><g fill="#f2f2f2"><path d="M548.011 293.31c.266 12.668-1.48 25.298-5.175 37.417a26.89 26.89 0 0 1-.44 1.321h-76.177a68.49 68.49 0 0 1 5.149-15.537c6.339-13.465 16.69-24.988 26.91-36.434 14.076-15.77 27.816-31.41 29.99-51.919 5.579 8.513 10.032 17.713 13.248 27.371a32.14 32.14 0 0 0-10.635 6.526c-.854.802-1.759 1.968-1.319 3.081.414.932 1.552 1.243 2.561 1.45l7.297 1.373 5.796 1.113c1.706 7.971 2.642 16.087 2.795 24.238z"/><path d="M612 284.92c-12.213 7.432-19.976 18.929-26.315 31.798-5.517 1.259-10.61 3.936-14.775 7.769-.88.803-1.785 1.968-1.32 3.081.389.933 1.553 1.243 2.562 1.45l7.271 1.373-.699 1.657h-80.73c3.665-4.946 7.723-9.588 12.135-13.879.958-.959 1.941-1.865 2.95-2.797 10.291-9.308 22.108-16.771 34.932-22.062 20.202-8.452 42.293-11.349 63.989-8.39z"/><path d="M511.449 332.048h-71.882a117.09 117.09 0 0 1 .104-17.298c2.872-35.553 22.201-69.423 51.362-89.932-3.726 13.284-1.811 26.49 2.07 39.748-.543.182-1.086.337-1.578.544-3.937 1.46-7.55 3.677-10.635 6.526-.854.802-1.759 1.968-1.319 3.081.388.932 1.552 1.243 2.561 1.45l7.271 1.373 5.822 1.139c.906.155 1.811.337 2.717.518.129.311.207.596.336.88 4.554 12.559 9.522 25.222 11.851 38.092a88.93 88.93 0 0 1 1.191 9.762c.077 1.372.129 2.745.129 4.117zm-391.76-38.738c.266 12.668-1.481 25.298-5.176 37.417-.129.441-.284.881-.44 1.321H37.897a68.46 68.46 0 0 1 5.149-15.537c6.339-13.465 16.689-24.988 26.91-36.434 14.076-15.77 27.816-31.41 29.99-51.919 5.579 8.513 10.032 17.713 13.248 27.371a32.14 32.14 0 0 0-10.635 6.526c-.854.802-1.76 1.968-1.32 3.081.414.932 1.553 1.243 2.562 1.45l7.297 1.373 5.796 1.113c1.706 7.971 2.641 16.087 2.795 24.238z"/><path d="M183.678 284.92c-12.213 7.432-19.976 18.929-26.315 31.798-5.517 1.259-10.61 3.936-14.775 7.769-.88.803-1.785 1.968-1.32 3.081.389.933 1.553 1.243 2.562 1.45l7.271 1.373-.699 1.657h-80.73c3.665-4.946 7.723-9.588 12.135-13.879.957-.959 1.941-1.865 2.95-2.797 10.291-9.308 22.108-16.771 34.932-22.062 20.202-8.452 42.293-11.349 63.989-8.39z"/><path d="M83.127 332.048H11.245a116.94 116.94 0 0 1 .104-17.298c2.872-35.553 22.201-69.423 51.362-89.932-3.726 13.284-1.811 26.49 2.07 39.748-.543.182-1.087.337-1.578.544a32.16 32.16 0 0 0-10.635 6.526c-.854.802-1.759 1.968-1.32 3.081.388.932 1.552 1.243 2.561 1.45l7.271 1.373 5.822 1.139c.906.155 1.811.337 2.717.518.129.311.207.596.336.88 4.554 12.559 9.522 25.222 11.851 38.092a88.95 88.95 0 0 1 1.19 9.762 72.93 72.93 0 0 1 .129 4.117z"/></g><g class="D"><path d="M350.73 301.847l64.228 5.706.688.062V33.352l-.688-.48a200.46 200.46 0 0 0-43.117-22.921l-3.282 45.3-.299 4.147-3.248 44.924-1.001 13.82-13.162 182.104-.119 1.601zM191.897 28.245l-1.377.891v278.48l1.377-.125 63.532-5.643-.118-1.601-13.163-182.104-1.001-13.82-3.248-44.924-.299-4.147-3.441-47.506a199.96 199.96 0 0 0-42.262 20.5z"/><path d="M190.52 29.135l-2.761 1.83v280.45c0 7.007 4.152 12.88 9.7 14.376a10.58 10.58 0 0 0 2.782.369h206.373a10.52 10.52 0 0 0 2.774-.369 11.86 11.86 0 0 0 5.41-3.243c2.818-3.015 4.359-7.006 4.297-11.133V35.843l-3.449-2.491-.688-.48v278.543a11.25 11.25 0 0 1-.32 2.679c-.98 4.14-4.214 7.174-8.024 7.174H200.241c-4.604 0-8.344-4.419-8.344-9.853V28.245l-1.377.891z"/><path d="M417.026 55.253h-227.2V59.4h227.2v-4.147z"/><path d="M347.441 2.359l-4.144-.96v112.595h4.144V2.359zM263.557 0l-4.144.807v113.187h4.144V0z"/><path d="M145.282 318.902c-.001 2.379.454 4.737 1.342 6.944a17.67 17.67 0 0 0 1.217 2.478 18.82 18.82 0 0 0 2.1 2.908 18.61 18.61 0 0 0 6.311 4.682c2.412 1.093 5.03 1.658 7.679 1.658h272.088c4.946 0 9.69-1.967 13.187-5.467a18.67 18.67 0 0 0 0-26.393 18.64 18.64 0 0 0-13.187-5.466H163.931a18.66 18.66 0 0 0-13.179 5.469 18.69 18.69 0 0 0-5.47 13.187zm44.544-200.759h225.819v-13.822H189.826v13.822z"/><path d="M312.404 107.777h-19.336c0-2.016.8-3.95 2.225-5.376s3.356-2.226 5.371-2.226h4.143c.998 0 1.986.196 2.907.578a7.6 7.6 0 0 1 2.465 1.648 7.61 7.61 0 0 1 1.647 2.467 7.62 7.62 0 0 1 .578 2.909h0z"/></g><path d="M0 329.562a201.04 201.04 0 0 0 19.553 20.145H580.39c6.979-6.251 13.512-12.982 19.553-20.145H0z" class="B"/><path d="M275.83 262.197v71.366h49.959v-71.366c.001-.513-.163-1.013-.467-1.427s-.733-.718-1.223-.869c-.231-.077-.473-.114-.716-.112h-45.141c-.316 0-.629.061-.922.182s-.558.298-.783.522-.401.489-.523.781-.184.606-.184.923zm19.497 24.522a5.34 5.34 0 0 1 1.579-3.742c.999-.99 2.348-1.545 3.754-1.545a5.33 5.33 0 0 1 3.753 1.545 5.34 5.34 0 0 1 1.58 3.742v8.28c-.007 1.411-.572 2.762-1.572 3.757a5.33 5.33 0 0 1-3.761 1.553c-1.41 0-2.762-.558-3.762-1.553a5.34 5.34 0 0 1-1.571-3.757v-8.28z" class="C"/><g class="B"><path d="M275.677 331.281v6.882c.001.356.142.698.394.951a1.35 1.35 0 0 0 .948.399H324.6c.357-.002.698-.145.949-.398a1.35 1.35 0 0 0 .393-.952v-6.882h-50.265zm-78.44-176.607v130.305a6.27 6.27 0 0 0 1.834 4.427c1.173 1.174 2.764 1.834 4.424 1.836h192.953c1.66-.002 3.25-.662 4.424-1.836a6.27 6.27 0 0 0 1.834-4.427V154.674c-.004-1.659-.665-3.249-1.838-4.422a6.26 6.26 0 0 0-4.42-1.834H203.495c-1.658.002-3.248.662-4.421 1.834a6.28 6.28 0 0 0-1.837 4.422z"/></g><path d="M201.763 156.295v127.077a3.36 3.36 0 0 0 .982 2.365 3.35 3.35 0 0 0 2.363.982h189.734a3.35 3.35 0 0 0 2.363-.982c.627-.628.98-1.478.981-2.365V156.295c0-.888-.352-1.74-.979-2.369a3.35 3.35 0 0 0-2.365-.985H205.108a3.35 3.35 0 0 0-2.365.985c-.627.629-.98 1.481-.98 2.369z" fill="#6c63ff"/><path d="M240.451 341.134a2.05 2.05 0 0 0 .718.572 2.06 2.06 0 0 0 .896.201h112.879c.309-.001.614-.07.892-.203a2.09 2.09 0 0 0 .719-.566 2.08 2.08 0 0 0 .405-.821c.073-.3.078-.613.014-.915l-1.752-8.33a2.08 2.08 0 0 0-.455-.919c-.226-.264-.514-.467-.838-.591a2.02 2.02 0 0 0-.737-.139H243.81a2.02 2.02 0 0 0-.737.139 2.08 2.08 0 0 0-.839.591c-.226.264-.382.58-.454.919l-1.753 8.33a2.09 2.09 0 0 0 .017.914 2.08 2.08 0 0 0 .407.818z" class="C"/><g class="B"><use xlink:href="#B"/><path d="M342.3 333.011h2.797a.34.34 0 0 0 .34-.34v-1.408a.34.34 0 0 0-.34-.34H342.3a.34.34 0 0 0-.34.34v1.408a.34.34 0 0 0 .34.34z"/><use xlink:href="#C"/><path d="M328.393 333.011h2.798a.34.34 0 0 0 .339-.34v-1.408a.34.34 0 0 0-.339-.34h-2.798a.34.34 0 0 0-.339.34v1.408a.34.34 0 0 0 .339.34z"/><use xlink:href="#D"/><use xlink:href="#E"/><path d="M307.533 333.011h2.798a.34.34 0 0 0 .339-.34v-1.408a.34.34 0 0 0-.339-.34h-2.798a.34.34 0 0 0-.339.34v1.408a.34.34 0 0 0 .339.34zm-6.953 0h2.798a.34.34 0 0 0 .339-.34v-1.408a.34.34 0 0 0-.339-.34h-2.798a.34.34 0 0 0-.339.34v1.408a.34.34 0 0 0 .339.34zm-6.953 0h2.797a.34.34 0 0 0 .34-.34v-1.408a.34.34 0 0 0-.34-.34h-2.797a.34.34 0 0 0-.34.34v1.408a.34.34 0 0 0 .34.34zm-6.954 0h2.798a.34.34 0 0 0 .34-.34v-1.408a.34.34 0 0 0-.34-.34h-2.798a.34.34 0 0 0-.339.34v1.408a.34.34 0 0 0 .339.34zm-6.953 0h2.798a.34.34 0 0 0 .339-.34v-1.408a.34.34 0 0 0-.339-.34h-2.798a.34.34 0 0 0-.339.34v1.408a.34.34 0 0 0 .339.34zm-6.953 0h2.798a.34.34 0 0 0 .339-.34v-1.408a.34.34 0 0 0-.339-.34h-2.798a.34.34 0 0 0-.34.34v1.408a.34.34 0 0 0 .34.34zm-6.953 0h2.797a.34.34 0 0 0 .34-.34v-1.408a.34.34 0 0 0-.34-.34h-2.797a.34.34 0 0 0-.34.34v1.408a.34.34 0 0 0 .34.34zm-6.954 0h2.798a.34.34 0 0 0 .339-.34v-1.408a.34.34 0 0 0-.339-.34h-2.798a.34.34 0 0 0-.339.34v1.408a.34.34 0 0 0 .339.34zm-6.953 0h2.798a.34.34 0 0 0 .339-.34v-1.408a.34.34 0 0 0-.339-.34h-2.798a.34.34 0 0 0-.339.34v1.408a.34.34 0 0 0 .339.34zm-6.953 0h2.797a.34.34 0 0 0 .34-.34v-1.408a.34.34 0 0 0-.34-.34h-2.797a.34.34 0 0 0-.34.34v1.408a.34.34 0 0 0 .34.34zm104.381 3.479h2.798a.34.34 0 0 0 .339-.34v-1.408a.34.34 0 0 0-.339-.34h-2.798a.34.34 0 0 0-.339.34v1.408a.34.34 0 0 0 .339.34zm-6.953 0h2.798a.34.34 0 0 0 .339-.34v-1.408a.34.34 0 0 0-.339-.34h-2.798a.34.34 0 0 0-.34.34v1.408a.34.34 0 0 0 .34.34zm-6.953 0h2.797a.34.34 0 0 0 .34-.34v-1.408a.34.34 0 0 0-.34-.34h-2.797a.34.34 0 0 0-.34.34v1.408a.34.34 0 0 0 .34.34zm-6.954 0h2.798a.34.34 0 0 0 .34-.34v-1.408a.34.34 0 0 0-.34-.34h-2.798a.34.34 0 0 0-.339.34v1.408a.34.34 0 0 0 .339.34zm-6.953 0h2.798a.34.34 0 0 0 .339-.34v-1.408a.34.34 0 0 0-.339-.34h-2.798a.34.34 0 0 0-.339.34v1.408a.34.34 0 0 0 .339.34zm-6.953 0h2.797a.34.34 0 0 0 .34-.34v-1.408a.34.34 0 0 0-.34-.34h-2.797a.34.34 0 0 0-.34.34v1.408a.34.34 0 0 0 .34.34zm-6.954 0h2.798a.34.34 0 0 0 .34-.34v-1.408a.34.34 0 0 0-.34-.34h-2.798a.34.34 0 0 0-.339.34v1.408a.34.34 0 0 0 .339.34zm-6.953 0h2.798a.34.34 0 0 0 .339-.34v-1.408a.34.34 0 0 0-.339-.34h-2.798a.34.34 0 0 0-.339.34v1.408a.34.34 0 0 0 .339.34zm-6.953 0h2.798a.34.34 0 0 0 .339-.34v-1.408a.34.34 0 0 0-.339-.34h-2.798a.34.34 0 0 0-.34.34v1.408a.34.34 0 0 0 .34.34zm-6.953 0h2.797a.34.34 0 0 0 .34-.34v-1.408a.34.34 0 0 0-.34-.34h-2.797a.34.34 0 0 0-.34.34v1.408a.34.34 0 0 0 .34.34zm-6.954 0h2.798a.34.34 0 0 0 .34-.34v-1.408a.34.34 0 0 0-.34-.34h-2.798a.34.34 0 0 0-.339.34v1.408a.34.34 0 0 0 .339.34zm-6.953 0h2.798a.34.34 0 0 0 .339-.34v-1.408a.34.34 0 0 0-.339-.34h-2.798a.34.34 0 0 0-.339.34v1.408a.34.34 0 0 0 .339.34zm-6.953 0h2.797a.34.34 0 0 0 .34-.34v-1.408a.34.34 0 0 0-.34-.34h-2.797a.34.34 0 0 0-.34.34v1.408a.34.34 0 0 0 .34.34zm-6.954 0h2.798a.34.34 0 0 0 .34-.34v-1.408a.34.34 0 0 0-.34-.34h-2.798a.34.34 0 0 0-.339.34v1.408a.34.34 0 0 0 .339.34zm-6.953 0h2.798a.34.34 0 0 0 .339-.34v-1.408a.34.34 0 0 0-.339-.34h-2.798a.34.34 0 0 0-.339.34v1.408a.34.34 0 0 0 .339.34zm-6.953 0h2.798a.34.34 0 0 0 .339-.34v-1.408a.34.34 0 0 0-.339-.34h-2.798a.34.34 0 0 0-.34.34v1.408a.34.34 0 0 0 .34.34zm46.587 4.175h27.134a.34.34 0 0 0 .34-.34v-1.408a.34.34 0 0 0-.34-.339h-27.134a.34.34 0 0 0-.34.339v1.408a.34.34 0 0 0 .34.34zm-76.981-170.218h177.534c.184-.004.36-.081.489-.213s.201-.309.201-.494-.072-.362-.201-.494-.305-.208-.489-.212H214.642c-.184.004-.36.08-.489.212s-.202.309-.202.494.073.362.202.494.305.209.489.213zm165.449-5.021c2.285 0 4.137-1.895 4.137-4.233s-1.852-4.233-4.137-4.233-4.138 1.895-4.138 4.233 1.853 4.233 4.138 4.233zm-14.294 0c2.286 0 4.138-1.895 4.138-4.233s-1.852-4.233-4.138-4.233-4.137 1.895-4.137 4.233 1.852 4.233 4.137 4.233zm-14.293 0c2.285 0 4.138-1.895 4.138-4.233s-1.853-4.233-4.138-4.233-4.137 1.895-4.137 4.233 1.852 4.233 4.137 4.233zm-129.013-6.647c0 .101.019.2.057.292a.76.76 0 0 0 .164.248c.071.071.154.128.246.167s.191.058.291.059h10.152a.77.77 0 0 0 .532-.232c.14-.143.218-.336.218-.537s-.078-.394-.218-.537a.77.77 0 0 0-.532-.232h-10.152c-.203.003-.396.085-.538.23a.77.77 0 0 0-.22.542zm0 2.888c0 .1.019.2.057.292a.76.76 0 0 0 .164.248.75.75 0 0 0 .246.166c.092.039.191.059.291.06h10.152a.77.77 0 0 0 .532-1.307c-.14-.144-.331-.227-.532-.231h-10.152c-.203.002-.396.085-.538.23a.77.77 0 0 0-.22.542zm0 2.881a.77.77 0 0 0 .758.773h10.152a.77.77 0 0 0 .532-1.307c-.141-.144-.332-.227-.532-.231h-10.152c-.1 0-.199.02-.291.059s-.176.095-.246.166a.76.76 0 0 0-.164.248.77.77 0 0 0-.057.292z"/></g><g class="D"><use xlink:href="#F"/><path d="M267.348 186.866H263.7c-1.106 0-2.002.898-2.002 2.004s.896 2.004 2.002 2.004h3.648c1.106 0 2.003-.897 2.003-2.004s-.897-2.004-2.003-2.004z"/><use xlink:href="#G"/><path d="M256 186.532h-22.671c-1.106 0-2.003.897-2.003 2.004s.897 2.004 2.003 2.004H256c1.106 0 2.003-.897 2.003-2.004s-.897-2.004-2.003-2.004z"/><use xlink:href="#H"/><path d="M236.754 195.912h-3.648c-1.106 0-2.003.898-2.003 2.004s.897 2.004 2.003 2.004h3.648c1.106 0 2.002-.897 2.002-2.004s-.896-2.004-2.002-2.004zm41.719 0h-3.647c-1.106 0-2.003.898-2.003 2.004s.897 2.004 2.003 2.004h3.647c1.106 0 2.003-.897 2.003-2.004s-.897-2.004-2.003-2.004z"/><use xlink:href="#I"/><path d="M267.125 195.578h-22.671c-1.106 0-2.003.897-2.003 2.004s.897 2.004 2.003 2.004h22.671c1.106 0 2.003-.897 2.003-2.004s-.897-2.004-2.003-2.004zm55.627 0H300.08c-1.106 0-2.002.897-2.002 2.004s.896 2.004 2.002 2.004h22.672c1.106 0 2.002-.897 2.002-2.004s-.896-2.004-2.002-2.004z"/><use xlink:href="#J"/><use xlink:href="#K"/><path d="M301.419 204.958h-3.648c-1.106 0-2.002.898-2.002 2.004s.896 2.005 2.002 2.005h3.648c1.106 0 2.003-.898 2.003-2.005s-.897-2.004-2.003-2.004z"/><use xlink:href="#L"/><path d="M333.877 204.624h-22.672c-1.106 0-2.002.898-2.002 2.004s.896 2.004 2.002 2.004h22.672c1.106 0 2.002-.897 2.002-2.004s-.896-2.004-2.002-2.004zm-74.873 9.381h-3.648c-1.106 0-2.002.897-2.002 2.004s.896 2.004 2.002 2.004h3.648c1.106 0 2.003-.898 2.003-2.004s-.897-2.004-2.003-2.004zm41.72 0h-3.648c-1.106 0-2.002.897-2.002 2.004s.896 2.004 2.002 2.004h3.648c1.106 0 2.002-.898 2.002-2.004s-.896-2.004-2.002-2.004z"/><use xlink:href="#M"/><use xlink:href="#N"/><path d="M267.348 249.976H263.7c-1.106 0-2.002.897-2.002 2.004s.896 2.004 2.002 2.004h3.648c1.106 0 2.003-.898 2.003-2.004s-.897-2.004-2.003-2.004zm11.821 0h-3.648c-1.106 0-2.003.897-2.003 2.004s.897 2.004 2.003 2.004h3.648c1.106 0 2.002-.898 2.002-2.004s-.896-2.004-2.002-2.004z"/><use xlink:href="#O"/><path d="M225.628 249.976h-3.647c-1.106 0-2.003.897-2.003 2.004s.897 2.004 2.003 2.004h3.647c1.106 0 2.003-.898 2.003-2.004s-.897-2.004-2.003-2.004zm30.372.334h-22.671c-1.106 0-2.003.897-2.003 2.004s.897 2.004 2.003 2.004H256c1.106 0 2.003-.898 2.003-2.004s-.897-2.004-2.003-2.004zm-19.246-9.381h-3.648c-1.106 0-2.003.898-2.003 2.004s.897 2.005 2.003 2.005h3.648c1.106 0 2.002-.898 2.002-2.005s-.896-2.004-2.002-2.004zm41.719 0h-3.647c-1.106 0-2.003.898-2.003 2.004s.897 2.005 2.003 2.005h3.647c1.106 0 2.003-.898 2.003-2.005s-.897-2.004-2.003-2.004zm11.821 0h-3.648c-1.106 0-2.002.898-2.002 2.004s.896 2.005 2.002 2.005h3.648c1.106 0 2.002-.898 2.002-2.005s-.896-2.004-2.002-2.004zm-23.169.335h-22.671c-1.106 0-2.003.897-2.003 2.004s.897 2.004 2.003 2.004h22.671c1.106 0 2.003-.898 2.003-2.004s-.897-2.004-2.003-2.004zm-19.246-9.381h-3.648c-1.106 0-2.002.898-2.002 2.004s.896 2.004 2.002 2.004h3.648c1.106 0 2.002-.897 2.002-2.004s-.896-2.004-2.002-2.004zm41.72 0h-3.648c-1.106 0-2.003.898-2.003 2.004s.897 2.004 2.003 2.004h3.648c1.106 0 2.002-.897 2.002-2.004s-.896-2.004-2.002-2.004z"/><use xlink:href="#P"/><path d="M278.251 232.218h-22.672c-1.106 0-2.002.897-2.002 2.004s.896 2.004 2.002 2.004h22.672c1.106 0 2.002-.898 2.002-2.004s-.896-2.004-2.002-2.004zm-19.247-9.381h-3.648c-1.106 0-2.002.898-2.002 2.004s.896 2.004 2.002 2.004h3.648c1.106 0 2.003-.897 2.003-2.004s-.897-2.004-2.003-2.004zm41.72 0h-3.648c-1.106 0-2.002.898-2.002 2.004s.896 2.004 2.002 2.004h3.648c1.106 0 2.002-.897 2.002-2.004s-.896-2.004-2.002-2.004zm11.82 0h-3.647c-1.106 0-2.003.898-2.003 2.004s.897 2.004 2.003 2.004h3.647c1.106 0 2.003-.897 2.003-2.004s-.897-2.004-2.003-2.004zm-23.168.334h-22.672c-1.106 0-2.002.898-2.002 2.004s.896 2.004 2.002 2.004h22.672c1.106 0 2.003-.897 2.003-2.004s-.897-2.004-2.003-2.004z"/></g><path d="M243.304 379.902l-.459.222-2.921 1.42-8.914 3.987a198.23 198.23 0 0 1-24.315 8.371c-1.391-8.677-2.74-29.142-4.033-44.193l-.73-7.801c-.232-3.06-.671-6.101-1.315-9.101-.063-.236-.154-.462-.271-.675.132 1.203.271 4.794.404 9.776l.201 7.801 1.008 45.425-2.913.696-1.85.417-2.252.487-2.358.481c-12.84 2.524-25.894 3.792-38.98 3.785-.869 0-1.731-.007-2.6-.014-.264 0-.529-.007-.8-.014l-2.364-.049a200.51 200.51 0 0 1-45.78-6.603l.605-44.611.104-7.801.042-2.957c-.345.951-.551 1.947-.612 2.957-.244 1.9-.494 4.593-.744 7.801l-2.948 43.637c-12.022-3.424-20.811-6.548-31.797-12.046l-1.279-.64.236-1.621c1.245-8.657-.222-19.922 1.154-29.33 1.05-7.258 2.135-14.23 3.226-20.145 1.321-7.119 2.663-12.713 3.991-15.434l4.54-9.185 1.884-3.751.994-1.955 4.179-7.996 2.503-4.523c.897-1.565 1.69-2.86 2.343-3.841a38.46 38.46 0 0 1 20.36-15.455l.208-.055.202.083.229.104 13.253-4.85 5.917-14.258 30.393-1.871 4.909 3.736 2.51 1.914 2.677 2.039 4.923 3.75 1.398.432 2.079.64 14.219 4.37.146-.063.209.056c7.597 2.434 14.247 7.177 19.024 13.569.473.612.911 1.246 1.335 1.886 1.155 1.712 2.712 4.418 4.548 7.814l2.399 4.523c.507.967 4.888 14.648 9.15 28.621 3.984 13.082 7.864 26.421 8.372 29.845l.278 1.906 1.697 11.837 2.364 16.311.021.139z" class="B"/><path opacity=".2" d="M211.095 329.532l-5.909-22.819-5.217 19.69 11.126 3.129z" fill="#000"/><path d="M11.007 329.267c.306.893.887 1.665 1.66 2.207a4.46 4.46 0 0 0 2.639.807l18.42-.475c.95-.018 1.868-.344 2.618-.928a4.4 4.4 0 0 0 1.541-2.312l2.607-27.895c.925.419 1.932.626 2.947.606 1.781-.045 3.471-.796 4.699-2.088s1.892-3.019 1.848-4.801-.795-3.474-2.086-4.703-3.017-1.894-4.798-1.849a5.63 5.63 0 0 0-1.207.125 4.57 4.57 0 0 0-1.54-1.091c-.584-.252-1.214-.378-1.849-.372l-28.335.732a4.11 4.11 0 0 0-.699.087c-.621.116-1.211.364-1.728.727s-.952.832-1.273 1.377-.522 1.153-.589 1.782a4.43 4.43 0 0 0 .201 1.865l4.924 36.199zm30.02-30.49l1.855-6.647a4.53 4.53 0 0 0 .014-2.348c.09-.001.169-.043.259-.043a4.8 4.8 0 0 1 3.421 1.333 4.81 4.81 0 0 1 .159 6.789c-.877.922-2.084 1.459-3.355 1.492-.822.026-1.636-.173-2.353-.576z" class="C"/><path d="M9.471 287.317c.604 3.454 7.391 5.883 15.552 5.46 7.505-.346 13.641-2.983 14.765-6.108-.416-.123-.849-.181-1.282-.171l-28.335.732a4.11 4.11 0 0 0-.699.087z" class="B"/><g fill="#6c63ff"><path d="M26.518 313.939c.037-.01.073-.025.105-.046l4-2.621a.34.34 0 0 0 .116-.125.35.35 0 0 0-.116-.457l-4.158-2.725a.34.34 0 0 0-.126-.051c-.045-.009-.091-.009-.136 0s-.087.028-.125.053-.07.059-.095.097a.36.36 0 0 0-.051.127c-.009.045-.008.091.001.136s.027.087.053.125a.36.36 0 0 0 .097.095l3.714 2.434-3.556 2.329a.35.35 0 0 0-.128.431.35.35 0 0 0 .404.198h0zm-6.318.291c.067-.017.128-.053.174-.105a.35.35 0 0 0 .085-.185c.009-.068-.002-.138-.032-.2a.35.35 0 0 0-.139-.149l-3.687-2.115 3.564-2.65c.037-.027.067-.061.091-.1a.35.35 0 0 0 .046-.128c.007-.045.004-.091-.007-.136s-.031-.085-.058-.122-.061-.068-.101-.091-.082-.039-.128-.046a.34.34 0 0 0-.135.007.35.35 0 0 0-.122.058l-3.99 2.966c-.046.035-.083.08-.108.132a.35.35 0 0 0-.032.168c.003.058.021.114.052.163a.34.34 0 0 0 .123.118l4.148 2.38c.078.045.171.057.258.035zm5.921 2.005a.33.33 0 0 0 .095-.04.35.35 0 0 0 .163-.351c-.007-.045-.023-.088-.047-.127l-5.671-9.331a.35.35 0 0 0-.477-.114.35.35 0 0 0-.117.477l5.671 9.33a.35.35 0 0 0 .382.156z"/></g><path d="M545.936 380.659l-1.279.64c-10.986 5.497-19.775 8.621-31.798 12.045-1.015-11.342-1.995-31.278-2.948-43.637-.25-3.208-.5-5.901-.744-7.8-.061-1.01-.267-2.006-.612-2.958l.042 2.958.104 7.8.605 44.611a200.52 200.52 0 0 1-45.78 6.604l-2.364.049-.8.014-2.6.013a200.97 200.97 0 0 1-48.354-5.866l1.009-45.425.201-7.8c.132-4.983.271-8.573.404-9.777a2.99 2.99 0 0 0-.272.675 67.63 67.63 0 0 0-1.314 9.102l-.73 7.8c-1.293 15.051-2.642 35.516-4.033 44.194a198.57 198.57 0 0 1-24.315-8.371 196.19 196.19 0 0 1-12.294-5.63l2.385-16.45 1.975-13.743c1.043-7.084 36.477-83.579 44.828-86.258l.208-.055.146.062 14.22-4.37 2.079-.64 1.397-.431 4.923-3.751 2.677-2.039 2.511-1.913 4.909-3.737 30.392 1.872 5.918 14.258 13.252 4.85.23-.104.202-.084.208.056a38.45 38.45 0 0 1 20.359 15.455c.654.981 1.447 2.275 2.344 3.841.765 1.329 1.599 2.846 2.503 4.523l4.179 7.995.994 1.955 1.884 3.751 4.541 9.185c1.328 2.721 2.67 8.316 3.991 15.434 1.092 5.915 2.176 12.887 3.226 20.145 1.377 9.408-.09 20.674 1.155 29.33l.236 1.622z" class="B"/><path d="M456.799 241.457c19.522 0 35.348-15.838 35.348-35.375s-15.826-35.374-35.348-35.374-35.348 15.837-35.348 35.374 15.825 35.375 35.348 35.375z" fill="#ffb6b6"/><path opacity=".2" d="M400.272 329.532l5.908-22.819 5.217 19.69-11.125 3.129z" fill="#000"/><path d="M557.493 314.664c-2.114 29.142.076 41.974-11.592 66.002-10.616 5.2-21.673 9.442-33.042 12.678l-3.553.974a200.52 200.52 0 0 1-45.78 6.604l-2.364.049-.8.014-2.6.014a200.97 200.97 0 0 1-48.354-5.867l-4.735-1.231a198.57 198.57 0 0 1-24.315-8.371 196.19 196.19 0 0 1-12.294-5.63l-2.718-1.391c-4.61-8.114-7.232-17.981-7.287-29.839 3.191-20.43 192.383-51.625 199.434-34.006z" class="C"/><path opacity=".2" d="M557.487 319.655l.37-5.609c-7.051-17.619-196.243 13.576-199.435 34.007a76.75 76.75 0 0 0 .224 5.465c7.729-20.164 187.464-49.813 198.841-33.863z" fill="#000"/><path d="M353.354 316.039l15.529-7.771-12.941-34.967-3.411-17.634a13.33 13.33 0 0 0-3.005-6.19c-1.525-1.765-3.487-3.098-5.689-3.867s-4.566-.944-6.858-.512-4.429 1.46-6.199 2.979a13.33 13.33 0 0 0-4.594 8.876c-.324 3.443.702 6.876 2.861 9.577l12.66 15.837 11.647 33.672z" fill="#ffb6b6"/><path d="M368.883 301.793l-20.706 10.36 15.713 49.273a21.56 21.56 0 0 0 5.873 9.25 21.53 21.53 0 0 0 9.658 5.165c4.452 1.061 9.125.675 13.343-1.101s7.761-4.851 10.116-8.778l41.667-71.473a22.02 22.02 0 0 0 2.54-16.399c-1.325-5.589-4.781-10.437-9.629-13.51a21.97 21.97 0 0 0-17.728-2.59 21.99 21.99 0 0 0-8.104 4.269c-2.373 1.977-4.302 4.431-5.664 7.203l-25.432 54.232-11.647-25.901z" class="B"/><path d="M145.677 239.016c21.48 0 38.893-17.426 38.893-38.923s-17.413-38.922-38.893-38.922-38.894 17.426-38.894 38.922 17.413 38.923 38.894 38.923z" fill="#a0616a"/><g class="C"><path d="M107.25 173.271c3.163-4.265 7.708-7.298 11.185-11.311 1.907-2.202 3.491-4.696 5.636-6.668 3.984-3.662 9.556-5.163 14.963-5.349 5.926-.153 11.804 1.093 17.159 3.637a37.76 37.76 0 0 1 13.666 11.002l8.479-4.974 3.349 8.823a5.14 5.14 0 0 1 3.299-1.261c1.214-.017 2.395.396 3.333 1.167a5.15 5.15 0 0 1 1.2 6.529c.673-2.08 3.754-2.521 5.453-1.147s2.154 3.819 1.877 5.987a12.06 12.06 0 0 1-3.018 6.376 12.05 12.05 0 0 1-6.066 3.593c-3.688.822-7.981-.042-10.933 2.319-2.366 1.892-3.081 5.338-5.496 7.168-2.976 2.255-7.182 1.212-10.881 1.71-6.473.872-11.597 7.496-10.82 13.985-.585-2.047-1.2-4.154-2.53-5.817s-3.567-2.788-5.606-2.177c-3.369 1.011-3.92 5.607-3.104 9.031 2.166 9.081 10.374 23.759 10.374 23.759-10.658 4.208-23.355.229-31.578-7.754s-12.506-19.288-14.372-30.601c-1.582-9.593-1.358-20.218 4.431-28.027zm393.846 52.312c7.4-16.978 3.208-32.601-5.812-40.889v-.006c-3.547-7.954-8.261-14.091-13.657-15.532-2.607-1.677-5.138-3.646-7.947-4.648a10.36 10.36 0 0 0-4.099-.647 10.34 10.34 0 0 0-4.023 1.016l-1.432-.383c-1.217-3.111-2.642-3.173-4.228-1.127-6.105-2.846-11.605-4.12-16.5-4.12-15.965 0-25.407 13.528-27.91 29.88l13.343 3.556 4.638-7.397-2.142 8.065 7.364 1.955c11.208 14.606-2.204 48.299-19.205 67.046 4.047-1.121 8.077-2.067 12.092-2.84l14.588-21.404-9.04 19.484c4.694-.689 10.681-.028 17.224 1.301 2.204-2.881 3.365-6.722 2.225-10.145a38.81 38.81 0 0 1 3.81 11.502c13.809 3.375 32.646 5.108 42.797 6.388 8.202-2.679 8.225-32.941-2.086-41.055z"/><path d="M505.91 167.833c5.42 12.145-5.516 17.369-15.534 17.221-9.053-.133-16.746-6.498-17.208-15.546-.222-4.345 1.29-8.601 4.203-11.831a16.39 16.39 0 0 1 11.331-5.39c9.042-.463 13.517 7.273 17.208 15.546z"/></g><path d="M254.478 365.537l-8.928-14.902 29.684-22.537 12.342-13.041a13.32 13.32 0 0 1 5.858-3.606 13.31 13.31 0 0 1 6.873-.203c2.27.536 4.359 1.658 6.06 3.255s2.952 3.612 3.63 5.845c1.005 3.308.686 6.878-.889 9.956s-4.284 5.423-7.554 6.54l-19.179 6.552-27.897 22.141z" fill="#a0616a"/><path d="M260.93 365.045l-13.899 11.593-3.748 3.125-.438.361-2.921 1.42-8.914 3.987a198.23 198.23 0 0 1-24.315 8.371l-4.736 1.232-2.913.696-1.85.417-2.252.487-2.358.481c-2.114-2.014-3.797-4.436-4.947-7.12s-1.742-5.575-1.742-8.495l.007-.578 2.232-57.289.988-25.392a22.01 22.01 0 0 1 6.659-15.199 21.98 21.98 0 0 1 15.376-6.219l1.981.097 1.335 1.886c1.155 1.712 2.712 4.419 4.548 7.814l2.399 4.523c.507.968 4.888 14.648 9.15 28.621l-1.877 14.592-3.393 26.303 13.92-9.144 9.804-6.443 1.161 1.941 3.025 5.052 5.841 9.742 1.877 3.138z" class="B"/><path d="M253.309 348.672l-.097 3.493c-.145 3.167-.512 6.32-1.099 9.436-.959 5.232-2.671 10.297-5.082 15.037a42.97 42.97 0 0 1-1.009 1.872l-2.718 1.392-.459.223a196.52 196.52 0 0 1-11.835 5.406 198.23 198.23 0 0 1-24.315 8.371l-4.736 1.232c-3.094.765-6.218 1.459-9.373 2.081-12.84 2.524-25.894 3.792-38.98 3.785-.869 0-1.731-.007-2.6-.014-.264 0-.529-.007-.8-.014l-2.364-.048c-15.463-.428-30.826-2.644-45.78-6.604l-3.553-.974c-11.368-3.236-22.426-7.479-33.042-12.679-11.668-24.028-9.477-36.859-11.591-66.001 4.339-10.849 77.745-3.187 134.261 9.067 15.339 3.326 29.427 6.993 40.559 10.723 11.5 3.848 19.837 7.759 23.105 11.433.764.76 1.289 1.728 1.509 2.783z" class="C"/><path opacity=".2" d="M53.879 319.655l-.369-5.609c7.051-17.619 196.242 13.576 199.434 34.007-.009 1.873-.089 3.691-.223 5.465-7.729-20.164-187.464-49.813-198.842-33.863z" fill="#000"/></g><defs><clipPath id="A"><path fill="#fff" d="M0 0h612v401H0z"/></clipPath><path id="B" d="M349.253 333.011h2.798a.34.34 0 0 0 .339-.34v-1.408a.34.34 0 0 0-.339-.34h-2.798a.34.34 0 0 0-.339.34v1.408a.34.34 0 0 0 .339.34z"/><path id="C" d="M335.346 333.011h2.798a.34.34 0 0 0 .34-.34v-1.408a.34.34 0 0 0-.34-.34h-2.798a.34.34 0 0 0-.339.34v1.408a.34.34 0 0 0 .339.34z"/><path id="D" d="M321.44 333.011h2.798a.34.34 0 0 0 .339-.34v-1.408a.34.34 0 0 0-.339-.34h-2.798a.34.34 0 0 0-.34.34v1.408a.34.34 0 0 0 .34.34z"/><path id="E" d="M314.487 333.011h2.797a.34.34 0 0 0 .34-.34v-1.408a.34.34 0 0 0-.34-.34h-2.797a.34.34 0 0 0-.34.34v1.408a.34.34 0 0 0 .34.34z"/><path id="F" d="M225.628 186.866h-3.647c-1.106 0-2.003.898-2.003 2.004s.897 2.004 2.003 2.004h3.647c1.106 0 2.003-.897 2.003-2.004s-.897-2.004-2.003-2.004z"/><path id="G" d="M279.169 186.866h-3.648c-1.106 0-2.003.898-2.003 2.004s.897 2.004 2.003 2.004h3.648c1.106 0 2.002-.897 2.002-2.004s-.896-2.004-2.002-2.004z"/><path id="H" d="M311.626 186.532h-22.671c-1.106 0-2.003.897-2.003 2.004s.897 2.004 2.003 2.004h22.671c1.106 0 2.003-.897 2.003-2.004s-.897-2.004-2.003-2.004z"/><path id="I" d="M290.294 195.912h-3.648c-1.106 0-2.002.898-2.002 2.004s.896 2.004 2.002 2.004h3.648c1.106 0 2.002-.897 2.002-2.004s-.896-2.004-2.002-2.004z"/><path id="J" d="M247.879 204.958h-3.648c-1.106 0-2.002.898-2.002 2.004s.896 2.005 2.002 2.005h3.648c1.106 0 2.002-.898 2.002-2.005s-.896-2.004-2.002-2.004z"/><path id="K" d="M289.599 204.958h-3.648c-1.106 0-2.003.898-2.003 2.004s.897 2.005 2.003 2.005h3.648c1.106 0 2.002-.898 2.002-2.005s-.896-2.004-2.002-2.004z"/><path id="L" d="M278.251 204.624h-22.672c-1.106 0-2.002.898-2.002 2.004s.896 2.004 2.002 2.004h22.672c1.106 0 2.002-.897 2.002-2.004s-.896-2.004-2.002-2.004z"/><path id="M" d="M312.544 214.005h-3.647c-1.106 0-2.003.897-2.003 2.004s.897 2.004 2.003 2.004h3.647c1.106 0 2.003-.898 2.003-2.004s-.897-2.004-2.003-2.004z"/><path id="N" d="M289.376 213.67h-22.672c-1.106 0-2.002.898-2.002 2.004s.896 2.004 2.002 2.004h22.672c1.106 0 2.003-.897 2.003-2.004s-.897-2.004-2.003-2.004z"/><path id="O" d="M311.626 250.31h-22.671c-1.106 0-2.003.897-2.003 2.004s.897 2.004 2.003 2.004h22.671c1.106 0 2.003-.898 2.003-2.004s-.897-2.004-2.003-2.004z"/><path id="P" d="M301.419 231.883h-3.648c-1.106 0-2.002.898-2.002 2.004s.896 2.004 2.002 2.004h3.648c1.106 0 2.003-.897 2.003-2.004s-.897-2.004-2.003-2.004z"/></defs></svg>