<svg width="836" height="512" viewBox="0 0 836 512" fill="none" xmlns="http://www.w3.org/2000/svg">
<g clip-path="url(#clip0_290_242)">
<path d="M836 214.667C836 242.886 806.912 287.923 771.03 287.923C735.148 287.923 706.06 242.886 706.06 214.667C706.06 201.116 712.905 188.12 725.089 178.538C737.274 168.956 753.799 163.573 771.03 163.573C788.261 163.573 804.787 168.956 816.971 178.538C829.155 188.12 836 201.116 836 214.667V214.667Z" fill="#FF6584"/>
<path d="M773.436 289.74C765.272 291.951 763.317 300.707 766.125 307.128C768.934 313.55 774.882 318.877 777.874 325.247C779.24 328.459 780.22 331.765 780.802 335.122C782.512 343.113 784.226 351.244 782.909 359.281C781.659 366.905 777.732 374.093 773.35 380.964C764.864 394.268 754.541 406.798 742.569 418.325" stroke="#2F2E41" stroke-width="2"/>
<path d="M777.292 292.848C773.118 290.741 768.943 290.741 764.768 292.848V282.998H777.292V292.848Z" fill="#FF6584"/>
<path d="M764.8 287.714C766.746 288.489 768.899 288.89 771.08 288.883C773.261 288.876 775.409 288.461 777.347 287.674" stroke="#2F2E41" stroke-width="2"/>
<path opacity="0.4" d="M798.035 206.049C805.601 206.049 811.734 200.261 811.734 193.121C811.734 185.982 805.601 180.194 798.035 180.194C790.47 180.194 784.337 185.982 784.337 193.121C784.337 200.261 790.47 206.049 798.035 206.049Z" fill="white"/>
<path d="M0 206.664C0 234.883 29.0881 279.92 64.97 279.92C100.852 279.92 129.94 234.883 129.94 206.664C129.94 193.113 123.095 180.117 110.911 170.535C98.7266 160.953 82.2012 155.57 64.97 155.57C47.7389 155.57 31.2135 160.953 19.0293 170.535C6.84504 180.117 0 193.113 0 206.664V206.664Z" fill="#FF6584"/>
<path d="M62.5638 281.737C70.7285 283.948 72.6832 292.704 69.8748 299.126C67.0665 305.547 61.1186 310.874 58.1258 317.244C56.7602 320.457 55.7799 323.763 55.1978 327.119C53.4881 335.11 51.7737 343.242 53.091 351.278C54.3407 358.902 58.2683 366.09 62.6501 372.961C71.1363 386.266 81.4587 398.795 93.4309 410.323" stroke="#2F2E41" stroke-width="2"/>
<path d="M58.708 284.845C62.8828 282.738 67.0576 282.738 71.2324 284.845V274.996H58.708V284.845Z" fill="#FF6584"/>
<path d="M71.199 279.712C69.253 280.487 67.1008 280.887 64.9195 280.88C62.7382 280.873 60.5903 280.459 58.6523 279.671" stroke="#2F2E41" stroke-width="2"/>
<path opacity="0.4" d="M37.9641 198.046C45.5296 198.046 51.6626 192.258 51.6626 185.119C51.6626 177.979 45.5296 172.191 37.9641 172.191C30.3987 172.191 24.2656 177.979 24.2656 185.119C24.2656 192.258 30.3987 198.046 37.9641 198.046Z" fill="white"/>
<path d="M789.034 431.357C789.034 460.426 615.206 512 400.779 512C186.352 512 32.8765 407.484 32.8765 378.416C32.8765 349.347 186.352 406.733 400.779 406.733C615.206 406.733 789.034 402.288 789.034 431.357Z" fill="#3F3D56"/>
<path opacity="0.1" d="M789.034 431.357C789.034 460.426 615.206 512 400.779 512C186.352 512 32.8765 407.484 32.8765 378.416C32.8765 349.347 186.352 406.733 400.779 406.733C615.206 406.733 789.034 402.288 789.034 431.357Z" fill="black"/>
<path d="M789.034 431.049C789.034 460.118 615.206 483.683 400.779 483.683C186.352 483.683 32.8765 407.484 32.8765 378.416C32.8765 349.347 186.352 378.416 400.779 378.416C615.206 378.416 789.034 401.98 789.034 431.049Z" fill="#3F3D56"/>
<path d="M341.437 349.133L333.574 388.612C333.574 388.612 294.866 404.784 322.083 405.259C349.3 405.735 477.522 405.259 477.522 405.259C477.522 405.259 502.32 405.259 463.006 388.136L455.144 346.754L341.437 349.133Z" fill="#2F2E41"/>
<path opacity="0.1" d="M316.608 404.831C322.789 400.506 333.575 395.999 333.575 395.999L341.437 356.52L455.144 356.604L463.006 395.523C472.174 399.516 477.853 402.577 481.176 404.925C486.225 404.019 491.743 400.652 463.006 388.136L455.144 346.754L341.437 349.133L333.575 388.612C333.575 388.612 301.048 402.203 316.608 404.831Z" fill="black"/>
<path d="M635.816 73.9686H159.556C149.608 73.9686 141.544 80.3104 141.544 88.1335V340.438C141.544 348.261 149.608 354.603 159.556 354.603H635.816C645.764 354.603 653.828 348.261 653.828 340.438V88.1335C653.828 80.3104 645.764 73.9686 635.816 73.9686Z" fill="#2F2E41"/>
<path d="M636.59 88.9516H158.781V299.189H636.59V88.9516Z" fill="#3F3D56"/>
<path d="M397.686 84.6707C399.356 84.6707 400.71 83.6059 400.71 82.2924C400.71 80.979 399.356 79.9142 397.686 79.9142C396.016 79.9142 394.662 80.979 394.662 82.2924C394.662 83.6059 396.016 84.6707 397.686 84.6707Z" fill="#F2F2F2"/>
<path d="M653.828 315.837V340.438C653.828 342.298 653.363 344.14 652.458 345.859C651.552 347.577 650.226 349.139 648.553 350.454C646.881 351.77 644.895 352.813 642.709 353.525C640.524 354.236 638.182 354.603 635.816 354.602H159.556C157.19 354.603 154.848 354.236 152.662 353.525C150.477 352.813 148.491 351.77 146.819 350.454C145.146 349.139 143.819 347.577 142.914 345.859C142.009 344.14 141.544 342.298 141.544 340.438V315.837H653.828Z" fill="#2F2E41"/>
<path d="M531.352 430.944V435.701H205.958V431.896L206.405 430.944L214.425 413.821H524.698L531.352 430.944Z" fill="#2F2E41"/>
<path d="M656.574 426.288C655.981 428.281 653.743 430.383 648.687 432.371C630.542 439.506 593.648 430.469 593.648 430.469C593.648 430.469 565.222 426.664 565.222 416.675C566.02 416.245 566.852 415.856 567.714 415.51C575.342 412.336 600.636 404.504 645.484 415.841C648.788 416.657 651.739 418.178 654.009 420.235C655.826 421.908 657.251 424.03 656.574 426.288Z" fill="#2F2E41"/>
<path opacity="0.1" d="M656.574 426.288C634.365 432.98 614.569 433.48 594.253 422.383C584.007 416.789 574.699 415.405 567.713 415.51C575.342 412.336 600.636 404.504 645.484 415.841C648.788 416.657 651.739 418.178 654.009 420.235C655.826 421.908 657.251 424.03 656.574 426.288Z" fill="black"/>
<path d="M628.727 422.383C633.07 422.383 636.59 421.531 636.59 420.48C636.59 419.429 633.07 418.578 628.727 418.578C624.385 418.578 620.865 419.429 620.865 420.48C620.865 421.531 624.385 422.383 628.727 422.383Z" fill="#F2F2F2"/>
<path d="M397.686 344.376C404.033 344.376 409.178 340.33 409.178 335.339C409.178 330.347 404.033 326.301 397.686 326.301C391.339 326.301 386.194 330.347 386.194 335.339C386.194 340.33 391.339 344.376 397.686 344.376Z" fill="#F2F2F2"/>
<path opacity="0.1" d="M531.352 430.944V435.701H205.958V431.896L206.405 430.944H531.352Z" fill="black"/>
<path d="M681.851 187.551C673.687 189.762 671.732 198.518 674.54 204.94C677.349 211.361 683.297 216.688 686.29 223.058C687.655 226.271 688.635 229.577 689.218 232.933C690.927 240.924 692.642 249.055 691.324 257.092C690.075 264.716 686.147 271.904 681.765 278.775C673.279 292.079 662.957 304.609 650.984 316.137" stroke="#2F2E41" stroke-width="2"/>
<path d="M744.416 112.478C744.416 140.697 715.328 185.734 679.446 185.734C643.564 185.734 614.476 140.697 614.476 112.478C614.476 98.9271 621.321 85.931 633.505 76.3489C645.689 66.7669 662.215 61.3837 679.446 61.3837C696.677 61.3837 713.202 66.7669 725.386 76.3489C737.571 85.931 744.416 98.9271 744.416 112.478V112.478Z" fill="#6C63FF"/>
<path d="M685.708 190.659C681.533 188.552 677.358 188.552 673.184 190.659V180.809H685.708V190.659Z" fill="#6C63FF"/>
<path d="M673.216 185.526C675.162 186.3 677.315 186.701 679.496 186.694C681.677 186.687 683.825 186.272 685.763 185.485" stroke="#2F2E41" stroke-width="2"/>
<path opacity="0.4" d="M706.451 103.86C714.017 103.86 720.15 98.072 720.15 90.9323C720.15 83.7926 714.017 78.0048 706.451 78.0048C698.886 78.0048 692.753 83.7926 692.753 90.9323C692.753 98.072 698.886 103.86 706.451 103.86Z" fill="white"/>
</g>
<defs>
<clipPath id="clip0_290_242">
<rect width="836" height="512" fill="white"/>
</clipPath>
</defs>
</svg>
