<svg xmlns="http://www.w3.org/2000/svg" width="1024" height="604" fill="none" xmlns:v="https://vecta.io/nano"><g clip-path="url(#A)"><path d="M43.264 577.734a26.58 26.58 0 0 0 13.438 1.103c4.5-.793 8.719-2.732 12.253-5.631 8.998-7.557 11.82-20.004 14.115-31.532l6.79-34.1-14.215 9.794c-10.223 7.043-20.676 14.313-27.754 24.514s-10.166 24.129-4.48 35.168" fill="#e6e6e6"/><path d="M45.459 621.391c-1.789-13.042-3.63-26.254-2.372-39.437 1.115-11.707 4.685-23.141 11.952-32.519a54.08 54.08 0 0 1 13.871-12.578c1.387-.875 2.663 1.324 1.283 2.196a51.42 51.42 0 0 0-20.331 24.545c-4.426 11.264-5.137 23.544-4.375 35.51.461 7.237 1.44 14.426 2.424 21.606.078.325.029.667-.136.957s-.434.507-.752.607c-.325.088-.671.043-.964-.123a1.28 1.28 0 0 1-.599-.765l-.001.001z" fill="#f2f2f2"/><path d="M58.337 600.463a19.58 19.58 0 0 0 7.378 6.645 19.57 19.57 0 0 0 9.686 2.171c8.641-.41 15.841-6.442 22.323-12.17l19.175-16.941-12.69-.608c-9.126-.437-18.488-.847-27.18 1.972s-16.709 9.594-18.298 18.597" fill="#e6e6e6"/><path d="M40.402 628.889c8.614-15.25 18.604-32.199 36.456-37.616 4.963-1.501 10.168-2.039 15.333-1.584 1.628.14 1.221 2.651-.403 2.511a37.78 37.78 0 0 0-24.47 6.478c-6.9 4.7-12.272 11.233-16.819 18.161-2.785 4.244-5.28 8.668-7.775 13.086-.797 1.412-3.128.393-2.322-1.036z" fill="#f2f2f2"/><path d="M904.919 27.542H192.552v338.24h712.367V27.542z" fill="#e6e6e6"/><path d="M884.55 56.547H212.922v282.204H884.55V56.547z" fill="#fff"/><path d="M904.616 8H192.248v30.282h712.368V8z" fill="#6c63ff"/><g fill="#fff"><path d="M214.738 27.619a5.613 5.613 0 1 0 0-11.225c-3.098 0-5.61 2.513-5.61 5.613s2.512 5.613 5.61 5.613zm21.29 0c3.098 0 5.61-2.513 5.61-5.613s-2.512-5.613-5.61-5.613-5.609 2.513-5.609 5.613 2.512 5.613 5.609 5.613zm21.292 0a5.613 5.613 0 1 0 0-11.225 5.613 5.613 0 1 0 0 11.225z"/></g><path d="M371.548 272.722h339.449v-58.216a46.12 46.12 0 0 0-3.755-17.844c-2.426-5.638-5.954-10.735-10.375-14.991l-.092-.09c-6.063-6.087-26.325-21.535-47.288-20.225-11.074.69-20.555 6.03-28.179 15.872-23.732 30.648-54.905 20.303-71.375 11.409-14.515-7.841-29.338-11.52-44.061-10.935-20.619.807-49.642 8.408-70.807 40.037-8.084 12.071-25.665 28.456-63.517 38.086v16.897z" fill="#e4e4e4"/><g fill="#3f3d56"><path d="M730.202 274.076h-358c-.297 0-.582-.118-.792-.329s-.329-.495-.329-.792V101.259a1.12 1.12 0 0 1 1.121-1.121 1.12 1.12 0 0 1 1.12 1.121v170.575h356.88a1.12 1.12 0 0 1 1.121 1.121c0 .297-.118.582-.328.793a1.12 1.12 0 0 1-.793.328z"/><path d="M440.3 208.05h-2.198v64.448h2.198V208.05zm65.787-30.1h-2.198v94.548h2.198V177.95zm65.923 19.789h-2.198v74.759h2.198v-74.759zm65.922-36.279h-2.197v111.039h2.197V161.46zm65.923 25.286h-2.197v85.753h2.197v-85.753z"/></g><g fill="#6c63ff"><path d="M505.124 186.192c3.712 0 6.722-3.011 6.722-6.726s-3.01-6.727-6.722-6.727-6.723 3.012-6.723 6.727 3.01 6.726 6.723 6.726zm131.845-17.59c3.713 0 6.722-3.011 6.722-6.726s-3.009-6.727-6.722-6.727-6.722 3.012-6.722 6.727 3.01 6.726 6.722 6.726zm-65.923 36.281c3.713 0 6.723-3.012 6.723-6.727s-3.01-6.726-6.723-6.726-6.722 3.011-6.722 6.726 3.01 6.727 6.722 6.727zm-131.845 9.894c3.713 0 6.722-3.011 6.722-6.726s-3.009-6.727-6.722-6.727-6.722 3.012-6.722 6.727 3.009 6.726 6.722 6.726zm263.691-21.988c3.713 0 6.722-3.012 6.722-6.727s-3.009-6.726-6.722-6.726-6.722 3.011-6.722 6.726 3.009 6.727 6.722 6.727z"/></g><g fill="#ffb6b6"><path d="M150.428 618.679h13.47l6.408-51.989-19.88.002.002 51.987zm63.725 0h13.471l6.407-51.989-19.88.002.002 51.987zm25.139-237.672c1.138-1.298 1.979-2.829 2.462-4.487s.597-3.401.333-5.107-.897-3.335-1.857-4.769a11.79 11.79 0 0 0-3.699-3.535l-21.92-105.31-23.882 9.415 29.057 100.555c-1.336 2.582-1.679 5.564-.965 8.381s2.438 5.276 4.842 6.907a11.86 11.86 0 0 0 8.204 1.946 11.87 11.87 0 0 0 7.425-3.996h0z"/></g><path d="M135.981 360.727l-9.928 10.085s-10.645 39.032 9.725 87.17l13.624 139.567 24.512 1.847 7.317-162.375 33.764 53.898-5.898 107.9 27.096-.623 12.246-119.561-33.444-124.764-79.014 6.856z" fill="#2f2e41"/><g fill="#6c63ff"><path d="M170.697 374.313a380.06 380.06 0 0 1-44.716-2.956l-.597-.079 14.796-65.068-5.095-83.72 48.11-1.649a17.67 17.67 0 0 1 11.962 4.092 17.69 17.69 0 0 1 6.172 11.039l9.847 66.794 9.108 59.26-.122.179c-6.545 9.603-28.43 12.108-49.465 12.108z"/><path d="M178.818 234.687l9.775-12.262s17.136-11.726 22.56 13.402 15.5 65.92 15.5 65.92l-33.509 2.715-14.326-69.775z"/></g><path d="M86.187 382.106a11.81 11.81 0 0 1-2.462-4.486 11.82 11.82 0 0 1 1.523-9.877c.96-1.435 2.223-2.641 3.699-3.535l21.921-105.31 23.881 9.415-29.056 100.556c1.335 2.581 1.679 5.563.964 8.381s-2.437 5.275-4.841 6.907-5.324 2.324-8.204 1.946-5.522-1.8-7.425-3.997h0z" fill="#ffb6b6"/><path d="M146.661 235.787l-9.775-12.262s-17.137-11.726-22.56 13.401-15.5 65.92-15.5 65.92l33.508 2.715 14.327-69.774z" fill="#6c63ff"/><path d="M187.856 208.597h-63.725a4.95 4.95 0 0 1-3.495-1.451c-.927-.927-1.448-2.185-1.45-3.497v-27.484a36.84 36.84 0 0 1 10.781-26.043c6.903-6.907 16.265-10.787 26.026-10.787s19.124 3.88 26.027 10.787 10.78 16.275 10.78 26.043v27.484a4.95 4.95 0 0 1-1.45 3.497c-.926.928-2.183 1.449-3.494 1.451z" fill="#2f2e41"/><path d="M163.029 206.941c14.904 0 26.986-12.089 26.986-27.002s-12.082-27.002-26.986-27.002-26.985 12.089-26.985 27.002 12.081 27.002 26.985 27.002z" fill="#ffb6b6"/><g fill="#2f2e41"><path d="M201.508 178.913h-38.967l-.399-5.598-1.998 5.598h-6l-.792-11.095-3.96 11.095h-11.609v-.55a29.17 29.17 0 0 1 8.537-20.591c5.458-5.461 12.859-8.534 20.578-8.543h5.494a29.14 29.14 0 0 1 20.578 8.543c5.459 5.462 8.529 12.867 8.538 20.591v.55z"/><path d="M162.222 213.727c-.293 0-.586-.026-.875-.077l-28.533-5.037v-47.186h31.41l-.778.907c-10.819 12.626-2.668 33.099 3.154 44.179a4.88 4.88 0 0 1-.387 5.174c-.457.632-1.057 1.146-1.75 1.501s-1.462.539-2.241.539z"/></g><g fill="#9e616a"><path d="M949.642 618.679h-13.469l-6.408-51.989 19.881.002-.004 51.987zm-48.343 0H887.83l-6.409-51.989 19.881.002-.003 51.987zm-156.88-364.291a12.53 12.53 0 0 0 4.067 3.596 12.52 12.52 0 0 0 5.204 1.536c1.827.125 3.658-.152 5.366-.812a12.52 12.52 0 0 0 4.518-3.006l26.653 10.414 10.276-14.663-37.846-14.179c-2.358-1.985-5.363-3.035-8.443-2.952s-6.025 1.294-8.273 3.404a12.6 12.6 0 0 0-3.925 8.042c-.28 3.071.575 6.138 2.403 8.62z"/></g><path d="M901.13 343.232l-35.093 11.455 11.723 248.678 27.084.671 13.86-175.372 3.148 174.679 33.487 1.847 12.345-261.958H901.13z" fill="#2f2e41"/><g fill="#3f3d56"><path d="M877.452 196.64l90.066-19.581 10.016 77.6-8.34 37.078 3.341 56.349s-71.217 35.468-106.498 6.6c0 0 28.357-74.527 11.92-109.416l-.505-48.63z"/><path d="M893.05 207.617l-15.598-10.976s-.922-1.277-13.92 13.928-39.368 39.392-39.368 39.392l-43.948-16.491-8.007 29.601 51.077 23.818 72.313-48.324-2.549-30.948z"/></g><path d="M972.551 377.175c1.655-.782 3.119-1.918 4.288-3.328a12.55 12.55 0 0 0 2.478-4.831 12.53 12.53 0 0 0-1.908-10.428l15.191-24.262-12.483-12.834-20.972 34.565c-2.389 1.949-3.98 4.707-4.472 7.751s.148 6.163 1.801 8.766a12.59 12.59 0 0 0 7.165 5.357 12.58 12.58 0 0 0 8.912-.756h0z" fill="#9e616a"/><path d="M953.47 192.346l14.048-15.288s15.653-5.454 28.441 22.73 27.071 85.353 27.071 85.353l-33.394 64.366-25.935-11.595 25.935-53.226-27.445-39.416-8.721-52.924z" fill="#3f3d56"/><path d="M929.65 170.694c14.167-7.75 19.374-25.525 11.63-39.701s-25.509-19.387-39.677-11.637-19.374 25.524-11.63 39.701 25.509 19.386 39.677 11.637z" fill="#9e616a"/><path d="M943.123 121.638l1.417-2.855-7.131-3.545s-7.868-12.809-22.104-9.209-20.641 5.753-20.641 5.753l-7.114 3.582 3.57 3.555-6.405 2.154 4.279 2.127-4.978 2.864 2.68 14.679s4.451-11.134 13.009-6.879 24.212-2.2 24.212-2.2l13.6 26.336s2.805-9.232 7.808-6.77c0 0 12.779-20.365-2.202-29.592z" fill="#2f2e41"/></g><defs><clipPath id="A"><path fill="#fff" transform="translate(0 .193)" d="M0 0h1024v603.183H0z"/></clipPath></defs></svg>