<svg width="284" height="71" viewBox="0 0 284 71" fill="none" xmlns="http://www.w3.org/2000/svg">
<path d="M61.824 0.0639992V70H53.376C52.128 70 51.072 69.808 50.208 69.424C49.376 69.008 48.544 68.304 47.712 67.312L14.736 25.6C14.864 26.848 14.944 28.064 14.976 29.248C15.04 30.4 15.072 31.488 15.072 32.512V70H0.768V0.0639992H9.312C10.016 0.0639992 10.608 0.0959988 11.088 0.159998C11.568 0.223997 12 0.351997 12.384 0.543999C12.768 0.703999 13.136 0.943998 13.488 1.264C13.84 1.584 14.24 2.016 14.688 2.56L47.952 44.56C47.792 43.216 47.68 41.92 47.616 40.672C47.552 39.392 47.52 38.192 47.52 37.072V0.0639992H61.824ZM91.713 70H75.393V0.0639992H91.713V70ZM166.262 0.0639992V70H157.814C156.566 70 155.51 69.808 154.646 69.424C153.814 69.008 152.982 68.304 152.15 67.312L119.174 25.6C119.302 26.848 119.382 28.064 119.414 29.248C119.478 30.4 119.51 31.488 119.51 32.512V70H105.206V0.0639992H113.75C114.454 0.0639992 115.046 0.0959988 115.526 0.159998C116.006 0.223997 116.438 0.351997 116.822 0.543999C117.206 0.703999 117.574 0.943998 117.926 1.264C118.278 1.584 118.678 2.016 119.126 2.56L152.39 44.56C152.23 43.216 152.118 41.92 152.054 40.672C151.99 39.392 151.958 38.192 151.958 37.072V0.0639992H166.262ZM208.775 44.656C208.775 48.56 208.279 52.112 207.287 55.312C206.327 58.512 204.855 61.264 202.871 63.568C200.919 65.84 198.455 67.616 195.479 68.896C192.503 70.144 188.999 70.768 184.967 70.768C183.143 70.768 181.335 70.672 179.543 70.48C177.783 70.288 175.943 69.968 174.023 69.52L174.887 60.064C174.983 59.232 175.319 58.56 175.895 58.048C176.471 57.536 177.287 57.28 178.343 57.28C178.887 57.28 179.559 57.376 180.359 57.568C181.159 57.728 182.119 57.808 183.239 57.808C184.807 57.808 186.167 57.6 187.319 57.184C188.503 56.736 189.479 56.016 190.247 55.024C191.015 54 191.591 52.672 191.975 51.04C192.359 49.408 192.551 47.392 192.551 44.992V0.0639992H208.775V44.656ZM257.478 43.264L250.998 24.112C250.518 22.896 250.006 21.472 249.462 19.84C248.918 18.176 248.374 16.384 247.83 14.464C247.35 16.416 246.838 18.224 246.294 19.888C245.75 21.552 245.238 22.992 244.758 24.208L238.326 43.264H257.478ZM283.254 70H270.678C269.27 70 268.134 69.68 267.27 69.04C266.406 68.368 265.75 67.52 265.302 66.496L261.174 54.304H234.582L230.454 66.496C230.102 67.392 229.462 68.208 228.534 68.944C227.638 69.648 226.518 70 225.174 70H212.502L239.574 0.0639992H256.182L283.254 70Z" fill="#20CAE1"/>
</svg>
