<svg xmlns="http://www.w3.org/2000/svg" xmlns:xlink="http://www.w3.org/1999/xlink" width="609" height="428" fill="none" xmlns:v="https://vecta.io/nano"><style><![CDATA[.B{fill:#e6e6e6}.C{fill:#2f2e41}.D{fill:#fff}.E{fill:#6c63ff}.F{fill:#ffb6b6}.G{fill:#cacaca}.H{fill:#f2f2f2}]]></style><g clip-path="url(#A)"><path d="M569.258 378.166h-153.89c-5.599-.006-10.966-2.446-14.925-6.784s-6.186-10.218-6.193-16.352V89.078c.007-6.134 2.234-12.015 6.193-16.352s9.326-6.777 14.925-6.784h153.89c5.598.007 10.966 2.447 14.925 6.784s6.186 10.218 6.192 16.352V355.03c-.006 6.134-2.233 12.015-6.192 16.352s-9.327 6.778-14.925 6.784z" class="B"/><path d="M571.81 79.747H415.078c-1.753.002-3.433.766-4.672 2.124s-1.937 3.199-1.939 5.119v269.42c.003 1.92.7 3.76 1.939 5.118s2.919 2.122 4.672 2.125H571.81c1.752-.003 3.432-.767 4.672-2.124s1.936-3.199 1.938-5.119V86.99c-.002-1.92-.699-3.761-1.938-5.119s-2.92-2.122-4.672-2.124z" class="D"/><g class="B"><path d="M419.13 65.941a1.86 1.86 0 0 1 .473-1.251 1.55 1.55 0 0 1 1.142-.519h10.986c.428 0 .839.187 1.142.519a1.86 1.86 0 0 1 .473 1.252 1.86 1.86 0 0 1-.473 1.252c-.303.332-.714.518-1.142.518h-10.986a1.55 1.55 0 0 1-1.142-.519 1.86 1.86 0 0 1-.473-1.251zm18.093 0c.001-.469.171-.919.474-1.251a1.55 1.55 0 0 1 1.142-.519h10.986c.428 0 .839.187 1.142.519a1.86 1.86 0 0 1 .473 1.252 1.86 1.86 0 0 1-.473 1.252c-.303.332-.714.518-1.142.518h-10.986a1.55 1.55 0 0 1-1.142-.519c-.303-.332-.473-.782-.474-1.251zm108.564 0c0-.469.171-.919.473-1.251a1.55 1.55 0 0 1 1.142-.519h10.986c.428 0 .839.187 1.142.519a1.86 1.86 0 0 1 .473 1.252 1.86 1.86 0 0 1-.473 1.252c-.303.332-.714.518-1.142.518h-10.986a1.55 1.55 0 0 1-1.142-.519c-.302-.332-.473-.782-.473-1.251z"/></g><path d="M515.163 358.102l-.11 5.55h-99.975c-1.753-.002-3.433-.767-4.672-2.124s-1.936-3.198-1.939-5.118V220.801c29.772 5.269 56.859 21.98 76.41 47.139s30.286 57.12 30.286 90.162z" class="H"/><path d="M511.768 148.983h-37.286c-1.696 0-3.072 1.507-3.072 3.366v4.2c0 1.859 1.376 3.366 3.072 3.366h37.286c1.696 0 3.072-1.507 3.072-3.366v-4.2c0-1.859-1.376-3.366-3.072-3.366z" class="E"/><g class="B"><use xlink:href="#B"/><path d="M535.465 192.71h-84.68c-1.697 0-3.072 1.507-3.072 3.366v4.2c0 1.859 1.375 3.366 3.072 3.366h84.68c1.697 0 3.072-1.507 3.072-3.366v-4.2c0-1.859-1.375-3.366-3.072-3.366z"/></g><path d="M520.965 345.24c-.486.024-.966-.115-1.377-.4s-.731-.701-.919-1.193-.233-1.034-.129-1.554.35-.993.707-1.355l.162-.707-.064-.17c-.489-1.266-1.309-2.345-2.356-3.102s-2.275-1.158-3.53-1.153-2.48.416-3.522 1.182-1.854 1.851-2.334 3.121c-1.921 5.068-4.366 10.144-4.968 15.502-.265 2.368-.153 4.769.331 7.096-4.511-10.78-6.853-22.497-6.868-34.356-.001-2.976.15-5.95.452-8.907a90.18 90.18 0 0 1 1.039-7.222c2.417-12.967 7.608-25.121 15.146-35.464 3.648-2.181 6.598-5.535 8.453-9.609.672-1.465 1.147-3.029 1.41-4.642a17.38 17.38 0 0 1-1.241.125l-.392.023-.048.002c-.452.022-.901-.099-1.291-.35s-.708-.619-.911-1.062-.287-.941-.238-1.435.226-.96.511-1.345l.534-.719.816-1.101c.031-.035.06-.072.088-.111l.931-1.256c-.567-.964-1.329-1.771-2.227-2.358-3.11-1.996-7.401-.614-9.647 2.469-2.254 3.082-2.679 7.406-1.896 11.257.77 3.277 2.043 6.386 3.765 9.195l-.513.702c-3.083 4.344-5.771 9.008-8.023 13.926.548-5.509-.106-11.083-1.908-16.261-1.826-4.827-5.249-8.892-8.263-13.064-3.62-5.012-11.044-2.824-11.682 3.529l-.018.184a21.99 21.99 0 0 1 1.315.881c.538.395.956.958 1.197 1.617a3.83 3.83 0 0 1 .156 2.074c-.141.693-.468 1.324-.941 1.809s-1.068.803-1.709.911l-.065.011c.159 1.768.441 3.52.843 5.241 1.165 4.804 3.223 9.293 6.045 13.185s6.348 7.104 10.356 9.433l.783.436c-2.264 7.027-3.683 14.347-4.224 21.776-.306 4.382-.288 8.785.054 13.164l-.02-.155c-.864-4.87-3.235-9.264-6.713-12.44-5.166-4.65-12.464-6.362-18.037-10.099-.593-.416-1.281-.639-1.985-.641s-1.394.217-1.988.631-1.068 1.004-1.365 1.703a4.39 4.39 0 0 0-.315 2.241l.023.163c.831.37 1.64.798 2.422 1.279a21.07 21.07 0 0 1 1.315.881c.539.394.956.957 1.197 1.616s.296 1.382.156 2.075a3.61 3.61 0 0 1-.941 1.808c-.473.486-1.068.803-1.708.911l-.066.011-.135.023c1.42 3.713 3.412 7.131 5.89 10.104 3.061 3.598 6.76 6.474 10.872 8.451s8.548 3.012 13.037 3.043h.007c1.219 5.802 2.985 11.45 5.269 16.853h18.823c.068-.23.128-.466.189-.695-1.742.12-3.491.006-5.208-.34l4.189-5.647a1.53 1.53 0 0 0 .088-.111l2.132-2.876v-.001a37.4 37.4 0 0 0-.918-8.743h0zm-21.555-46.456l.01-.015-.01.03v-.015zm-4.169 41.178l-.162-.399c.007-.288.007-.576 0-.872 0-.081-.014-.162-.014-.244l.183 1.53-.007-.015z" fill="#ccc"/><path d="M563.975 103.533H422.912c-.305-.007-.595-.145-.809-.384s-.333-.56-.333-.895.12-.655.333-.894a1.12 1.12 0 0 1 .809-.385h141.063c.305.007.596.145.809.385s.333.56.333.894-.119.656-.333.895a1.12 1.12 0 0 1-.809.384z" class="G"/><g fill="#3f3d56"><path d="M430.438 97.276c1.895 0 3.432-1.721 3.432-3.843s-1.537-3.843-3.432-3.843-3.431 1.721-3.431 3.843 1.536 3.843 3.431 3.843z"/><use xlink:href="#C"/><path d="M454.145 97.276c1.895 0 3.431-1.721 3.431-3.843s-1.536-3.843-3.431-3.843-3.431 1.721-3.431 3.843 1.536 3.843 3.431 3.843zm104.317-6.201h-7.679c-.153.003-.297.072-.404.191s-.166.279-.166.446.059.327.166.446a.56.56 0 0 0 .404.191h7.679c.152-.003.297-.072.403-.191a.67.67 0 0 0 .167-.446.67.67 0 0 0-.167-.446c-.106-.119-.251-.188-.403-.191z"/><use xlink:href="#D"/><path d="M558.462 95.854h-7.679a.56.56 0 0 0-.404.191c-.107.119-.166.279-.166.446s.059.327.166.446a.56.56 0 0 0 .404.191h7.679c.152-.003.297-.072.403-.191a.67.67 0 0 0 .167-.446.67.67 0 0 0-.167-.446c-.106-.119-.251-.188-.403-.191z"/></g><path d="M329.587 220.902h-81.784c-1.157.002-2.266.507-3.083 1.404s-1.276 2.114-1.274 3.382v141.548h90.51V225.688a5.2 5.2 0 0 0-.332-1.832c-.22-.581-.541-1.109-.947-1.553a4.37 4.37 0 0 0-1.417-1.038c-.531-.24-1.099-.363-1.673-.363zm-40.617 80.426c-2.557-.013-5.007-1.132-6.815-3.114s-2.83-4.665-2.842-7.467v-16.326c.002-2.805 1.02-5.494 2.831-7.476s4.266-3.096 6.826-3.096 5.015 1.114 6.826 3.096 2.829 4.671 2.832 7.476v16.326c-.012 2.802-1.034 5.486-2.842 7.467s-4.258 3.101-6.816 3.114z" class="B"/><path d="M243.165 362.708v13.657c.001.708.258 1.386.715 1.886s1.076.782 1.722.784H331.8c.645-.004 1.263-.286 1.719-.786s.714-1.177.718-1.884v-13.657h-91.072z" fill="#ccc"/><path d="M465.016 0H115.418c-3.004.005-5.883 1.315-8.007 3.642s-3.319 5.481-3.324 8.772v258.465c.003 3.292 1.198 6.447 3.322 8.775s5.005 3.636 8.009 3.639h349.598c3.004-.003 5.884-1.312 8.008-3.639s3.319-5.483 3.322-8.775V12.414c-.005-3.291-1.2-6.445-3.324-8.772S468.019.005 465.016 0z" class="B"/><path d="M462.098 8.966H118.339c-1.609.004-3.15.706-4.286 1.954s-1.774 2.937-1.774 4.699v252.059c.003 1.76.642 3.447 1.778 4.691s2.675 1.945 4.282 1.948h343.759c1.606-.003 3.145-.704 4.281-1.948s1.775-2.931 1.778-4.691V15.619c0-1.762-.638-3.452-1.774-4.699s-2.677-1.95-4.285-1.954z" class="D"/><path d="M468.157 15.619v252.059c-.003 1.76-.642 3.447-1.778 4.691s-2.675 1.945-4.281 1.948H340.881c-13.41-13.625-24.411-29.843-32.453-47.839-.529-1.16-1.033-2.333-1.511-3.52-7.327-17.418-11.764-36.127-13.102-55.251l-.214-3.533c-.164-3.037-.24-6.114-.24-9.206-.024-20.562 3.52-40.942 10.444-60.054.416-1.187.857-2.36 1.31-3.533 13.934-35.868 39.112-65.098 70.989-82.414h85.994c1.608.004 3.149.706 4.285 1.954s1.774 2.937 1.774 4.699z" class="E"/><path d="M444.817 43.694H123.164c-.335-.008-.653-.159-.887-.421s-.366-.614-.366-.981.132-.719.366-.98.552-.413.887-.421h321.653c.335.008.653.159.887.421s.366.614.366.98-.132.719-.366.981-.552.413-.887.421z" class="G"/><g fill="#3f3d56"><path d="M145.059 33.736c4.14 0 7.496-3.759 7.496-8.396s-3.356-8.396-7.496-8.396-7.496 3.759-7.496 8.396 3.356 8.396 7.496 8.396zm25.896 0c4.14 0 7.497-3.759 7.497-8.396s-3.357-8.396-7.497-8.396-7.496 3.759-7.496 8.396 3.356 8.396 7.496 8.396zm25.897 0c4.14 0 7.496-3.759 7.496-8.396s-3.356-8.396-7.496-8.396-7.497 3.759-7.497 8.396 3.356 8.396 7.497 8.396zm232.374-14.711H410.83a1.34 1.34 0 0 0-.967.458c-.255.285-.398.669-.398 1.069s.143.783.398 1.069.603.45.967.457h18.396a1.34 1.34 0 0 0 .967-.457c.255-.285.398-.669.398-1.069s-.143-.783-.398-1.069a1.34 1.34 0 0 0-.967-.458zm0 5.728H410.83a1.34 1.34 0 0 0-.967.457c-.255.285-.398.669-.398 1.069s.143.783.398 1.069.603.45.967.457h18.396a1.34 1.34 0 0 0 .967-.457c.255-.285.398-.669.398-1.069s-.143-.783-.398-1.069-.603-.45-.967-.457zm0 5.721H410.83a1.34 1.34 0 0 0-.967.457c-.255.285-.398.669-.398 1.069s.143.783.398 1.069.603.45.967.458h18.396c.364-.008.712-.172.967-.458s.398-.669.398-1.069-.143-.783-.398-1.069-.603-.45-.967-.457z"/></g><path d="M221.65 125.567h-44.98c-1.697 0-3.073 1.507-3.073 3.366v5.246c0 1.859 1.376 3.366 3.073 3.366h44.98c1.697 0 3.072-1.507 3.072-3.366v-5.246c0-1.859-1.375-3.366-3.072-3.366z" class="E"/><g class="B"><path d="M247.614 149.522h-96.909c-1.697 0-3.072 1.507-3.072 3.366v5.246c0 1.859 1.375 3.366 3.072 3.366h96.909c1.697 0 3.073-1.507 3.073-3.366v-5.246c0-1.859-1.376-3.366-3.073-3.366zm0 23.956h-96.909c-1.697 0-3.072 1.507-3.072 3.366v5.246c0 1.858 1.375 3.365 3.072 3.365h96.909c1.697 0 3.073-1.507 3.073-3.365v-5.246c0-1.859-1.376-3.366-3.073-3.366z"/></g><path d="M156.044 259.866c.008 4.933-.794 9.828-2.368 14.451h-35.337c-1.607-.003-3.146-.704-4.282-1.948s-1.775-2.931-1.778-4.691v-48.695c1.975-.35 3.971-.525 5.972-.524 4.963-.001 9.877 1.07 14.463 3.151s8.752 5.131 12.261 8.976 6.294 8.41 8.193 13.434 2.877 10.408 2.876 15.846z" class="E"/><path opacity=".2" d="M468.472 94.914V91.38h-54.058V50.429h-3.212V91.38h-61.956V50.429h-3.213V91.38h-40.918l-1.31 3.533h42.228v69.26h-52.432l.214 3.534h52.218v55.25h-39.116l1.511 3.52h37.605v46.445h3.213v-46.445h61.956v46.445h3.212v-46.445h54.058v-3.52h-54.058 0c0-7.255 1.305-14.44 3.839-21.143s6.249-12.794 10.932-17.925 10.242-9.2 16.36-11.977 12.676-4.206 19.299-4.206h3.628v-3.533h-54.058v-69.26h54.058zm-57.27 128.044h-61.956v-55.251h61.956v55.251zm0-58.784h-61.956v-1.38c0-18.003 6.527-35.269 18.146-47.999s27.378-19.881 43.81-19.881h0v69.26z" fill="#000"/><path d="M424.947 248.167c-.689.035-1.372-.164-1.955-.568s-1.039-.996-1.305-1.694-.33-1.468-.184-2.207.498-1.411 1.005-1.924l.23-1.005-.091-.241c-3.1-8.097-13.604-8.041-16.677.068-2.727 7.197-6.2 14.407-7.055 22.016a32.07 32.07 0 0 0 .47 10.078c-6.406-15.31-9.733-31.951-9.754-48.793a123.94 123.94 0 0 1 .642-12.65 128.24 128.24 0 0 1 1.475-10.256c3.434-18.417 10.806-35.679 21.511-50.368 5.181-3.097 9.371-7.86 12.005-13.647.955-2.08 1.629-4.3 2.003-6.592-.584.084-1.178.136-1.763.178l-.556.032-.068.003c-.643.032-1.28-.141-1.835-.497a3.53 3.53 0 0 1-1.293-1.508c-.29-.63-.407-1.337-.338-2.037s.321-1.364.726-1.911l.758-1.021 1.159-1.564a1.91 1.91 0 0 0 .125-.157l1.322-1.785c-.805-1.368-1.887-2.514-3.162-3.349-4.417-2.834-10.511-.871-13.702 3.507-3.2 4.377-3.803 10.518-2.692 15.988.949 4.681 3.018 8.975 5.347 13.059l-.729.997c-4.379 6.169-8.195 12.793-11.394 19.778.778-7.825-.151-15.74-2.71-23.095-2.593-6.855-7.454-12.628-11.735-18.553-5.141-7.118-15.685-4.012-16.591 5.011l-.026.262c.636.393 1.259.81 1.868 1.251.765.56 1.357 1.361 1.7 2.296a5.45 5.45 0 0 1 .221 2.947c-.199.984-.665 1.879-1.336 2.568s-1.517 1.14-2.427 1.294l-.093.016c.227 2.51.627 4.999 1.198 7.443 1.654 6.823 4.577 13.198 8.585 18.726s9.015 10.088 14.708 13.396l1.111.62c-3.214 9.98-5.23 20.376-5.998 30.926a126.82 126.82 0 0 0 .077 18.696l-.029-.22c-1.226-6.916-4.594-13.157-9.534-17.668-7.336-6.603-17.702-9.034-25.617-14.342-3.81-2.555-8.692.747-8.027 5.586l.032.232a29.67 29.67 0 0 1 3.44 1.816c.636.393 1.258.81 1.867 1.251.765.56 1.358 1.361 1.701 2.296a5.45 5.45 0 0 1 .221 2.947c-.199.984-.665 1.879-1.336 2.568s-1.517 1.141-2.427 1.294l-.093.016-.192.031c2.016 5.274 4.846 10.128 8.365 14.351 4.347 5.11 9.602 9.194 15.441 12.001s12.14 4.278 18.516 4.322h.01c1.731 8.241 4.239 16.262 7.483 23.935h26.732c.096-.325.183-.661.269-.987a27.71 27.71 0 0 1-7.397-.483l5.95-8.02a1.91 1.91 0 0 0 .125-.157l3.027-4.084.001-.001a53.24 53.24 0 0 0-1.304-12.418h-.001zm-30.612-65.977l.014-.021-.014.042v-.021zm-5.921 58.482l-.23-.567c.009-.409.009-.819 0-1.238 0-.116-.019-.231-.019-.347l.258 2.173-.009-.021z" class="C"/><path d="M186.904 179.667v-39.363c0-6.042-2.191-11.837-6.091-16.109s-9.188-6.673-14.703-6.673H89.992c-5.515 0-10.804 2.4-14.704 6.673s-6.09 10.067-6.09 16.109v215.949c0 6.042 2.191 11.836 6.09 16.109s9.189 6.673 14.704 6.673h76.119c2.73 0 5.434-.59 7.957-1.734s4.815-2.823 6.746-4.939 3.463-4.627 4.508-7.391 1.583-5.727 1.583-8.718V207.687c.348 0 .681-.152.927-.421a1.51 1.51 0 0 0 .384-1.016v-25.146a1.51 1.51 0 0 0-.384-1.016c-.246-.269-.579-.421-.927-.421z" class="B"/><path d="M182.478 140.461v215.636c.001 4.479-1.612 8.777-4.487 11.961s-6.782 4.996-10.87 5.043c-.056.006-.113.009-.17.008H90.463c-4.118-.001-8.067-1.793-10.979-4.983s-4.548-7.517-4.548-12.029V140.461c0-4.512 1.636-8.839 4.548-12.029s6.861-4.983 10.979-4.983h9.282a8.8 8.8 0 0 0-.507 3.878c.124 1.319.542 2.584 1.217 3.684s1.586 2.002 2.654 2.626a6.87 6.87 0 0 0 3.468.951h43.608a6.87 6.87 0 0 0 3.464-.957 7.67 7.67 0 0 0 2.65-2.626c.674-1.099 1.091-2.363 1.215-3.681a8.8 8.8 0 0 0-.504-3.875h9.941c4.118 0 8.067 1.793 10.979 4.983s4.548 7.517 4.548 12.029z" class="D"/><path d="M167.312 366.453l-.191 6.648c-.056.006-.113.009-.17.008H90.463c-4.118-.001-8.067-1.793-10.979-4.983s-4.548-7.517-4.548-12.029V260c24.921 1.377 48.407 13.193 65.6 33.007s26.78 46.107 26.777 73.446z" class="H"/><path d="M69.618 201.689c-.469-.001-.919-.206-1.251-.569s-.519-.857-.519-1.371v-13.187c0-.514.186-1.008.518-1.371s.782-.568 1.252-.568.92.204 1.252.568.518.857.518 1.371v13.187c0 .514-.187 1.007-.519 1.371s-.782.568-1.251.569z" class="B"/><path d="M138.098 191.159h-18.783c-1.696 0-3.072 1.507-3.072 3.366v5.245c0 1.859 1.376 3.366 3.072 3.366h18.783c1.697 0 3.073-1.507 3.073-3.366v-5.245c0-1.859-1.376-3.366-3.073-3.366z" class="E"/><g class="B"><use xlink:href="#E"/><path d="M164.063 239.069H93.351c-1.697 0-3.072 1.507-3.072 3.366v5.246c0 1.859 1.375 3.366 3.072 3.366h70.712c1.697 0 3.072-1.507 3.072-3.366v-5.246c0-1.859-1.375-3.366-3.072-3.366z"/></g><path d="M147.049 360.837a1.47 1.47 0 0 1-.918-.266 1.7 1.7 0 0 1-.612-.795c-.125-.327-.155-.689-.087-1.036s.234-.662.472-.903l.108-.471-.043-.113c-.326-.844-.872-1.563-1.57-2.068a3.98 3.98 0 0 0-2.353-.768c-.836.003-1.652.277-2.347.787s-1.235 1.234-1.556 2.08c-1.28 3.378-2.909 6.761-3.31 10.332-.177 1.578-.103 3.179.22 4.729-3.006-7.184-4.567-14.993-4.577-22.897a58.23 58.23 0 0 1 .301-5.936c.166-1.616.397-3.22.692-4.813 1.612-8.642 5.071-16.743 10.095-23.636 2.431-1.453 4.397-3.688 5.633-6.404.448-.976.765-2.018.94-3.093-.274.039-.553.064-.827.083l-.261.015-.032.002c-.302.015-.601-.066-.861-.233s-.471-.413-.607-.708-.191-.628-.159-.956.151-.64.341-.897l.356-.479.544-.734a.7.7 0 0 0 .058-.074l.621-.837a4.76 4.76 0 0 0-1.484-1.572c-2.073-1.33-4.932-.409-6.43 1.646s-1.785 4.936-1.263 7.502c.513 2.184 1.361 4.256 2.509 6.128l-.342.468a57.11 57.11 0 0 0-5.347 9.282c.365-3.672-.071-7.387-1.272-10.838-1.217-3.217-3.498-5.926-5.506-8.706-.532-.747-1.253-1.305-2.074-1.603a4.01 4.01 0 0 0-2.536-.071c-.833.252-1.58.769-2.145 1.485s-.924 1.6-1.031 2.54l-.012.123c.298.185.59.38.876.587.359.263.637.639.798 1.078a2.56 2.56 0 0 1 .104 1.382 2.42 2.42 0 0 1-.627 1.206c-.315.323-.712.535-1.139.607l-.044.007a25.49 25.49 0 0 0 .563 3.493c.776 3.202 2.147 6.194 4.028 8.787s4.231 4.735 6.902 6.287l.522.291c-1.509 4.683-2.455 9.562-2.815 14.512a59.48 59.48 0 0 0 .036 8.774l-.014-.104c-.575-3.245-2.155-6.174-4.473-8.29-3.443-3.099-8.307-4.24-12.022-6.731-.394-.277-.853-.426-1.322-.427a2.31 2.31 0 0 0-1.325.42c-.396.276-.712.67-.91 1.135s-.271.984-.21 1.494l.016.109a13.91 13.91 0 0 1 1.614.852 14.38 14.38 0 0 1 .876.587 2.32 2.32 0 0 1 .798 1.077 2.56 2.56 0 0 1 .104 1.383c-.094.462-.312.882-.627 1.205s-.712.535-1.139.608l-.044.007-.09.015c.946 2.474 2.274 4.752 3.926 6.734 2.04 2.398 4.505 4.315 7.245 5.632a20.36 20.36 0 0 0 8.689 2.028h.005c.812 3.867 1.989 7.631 3.512 11.232h12.544c.045-.153.086-.311.126-.463a13.01 13.01 0 0 1-3.471-.227l2.792-3.764c.021-.023.04-.048.059-.073l1.42-1.917h.001a24.98 24.98 0 0 0-.612-5.827v-.001zm-14.366-30.961l.007-.009-.007.019v-.01zm-2.778 27.444l-.108-.266c.004-.192.004-.384 0-.581 0-.054-.009-.108-.009-.163l.121 1.02-.004-.01z" fill="#ccc"/><path d="M69.264 176.089c-.469 0-.919-.205-1.251-.568s-.519-.857-.519-1.371v-13.187a2.04 2.04 0 0 1 .518-1.372c.332-.363.782-.568 1.252-.568s.92.205 1.252.568a2.04 2.04 0 0 1 .518 1.372v13.187c0 .514-.187 1.007-.519 1.371s-.782.568-1.251.568z" class="B"/><path d="M116.348 125.667c.001-.514.187-1.007.519-1.37s.782-.568 1.251-.569h12.037c.469 0 .919.204 1.251.568s.519.857.519 1.371a2.04 2.04 0 0 1-.519 1.372c-.332.363-.782.568-1.251.568h-12.037c-.469-.001-.919-.205-1.251-.569s-.518-.857-.519-1.371z" class="D"/><path d="M69.618 224.185c-.469-.001-.919-.205-1.251-.569s-.519-.857-.519-1.371v-13.187c0-.514.186-1.008.518-1.371s.782-.568 1.252-.568.92.204 1.252.568.518.857.518 1.371v13.187c0 .514-.187 1.007-.519 1.371s-.782.568-1.251.569z" class="B"/><path d="M136.881 127.607c.978 0 1.77-.869 1.77-1.94s-.792-1.939-1.77-1.939-1.77.868-1.77 1.939.792 1.94 1.77 1.94z" class="D"/><path d="M608.157 379.029l-607.314.239a.81.81 0 0 1-.595-.272.97.97 0 0 1-.246-.652.97.97 0 0 1 .246-.652c.158-.173.371-.271.595-.271l607.314-.239c.224 0 .438.097.596.271a.97.97 0 0 1 .247.653.97.97 0 0 1-.247.653c-.158.173-.372.27-.596.27z" class="G"/><path d="M259.687 175.396l-3.194.75c-.021-1.464-.188-2.921-.497-4.345-.291 1.744-.903 3.406-1.799 4.882l-18.321 4.287-17.59-20.338c-.027-10.169 5.128-17.896 14.369-17.896a17.15 17.15 0 0 1 1.718.088c4.993-.916 10.115.327 14.288 3.466s7.073 7.93 8.087 13.364c6.55 7.066 4.174 11.221 2.939 15.742z" class="C"/><path d="M268.694 413.238h6.646l3.162-28.085h-9.809l.001 28.085z" class="F"/><path d="M267.046 409.646l10.506-.687v4.931l9.988 7.558c.493.373.865.909 1.06 1.53a3.35 3.35 0 0 1 .026 1.921c-.178.627-.535 1.176-1.018 1.565a2.65 2.65 0 0 1-1.666.599h-12.507l-2.156-4.878-.842 4.878h-4.715l1.324-17.417z" class="C"/><path d="M190.836 405.312l5.781 3.593 15.399-22.717-8.531-5.303-12.649 24.427z" class="F"/><path d="M191.021 401.297l9.446 5.083-2.221 4.289 5.283 11.973c.261.591.343 1.259.233 1.904s-.405 1.237-.843 1.686-.994.732-1.59.81-1.197-.056-1.719-.38l-10.878-6.762.322-5.408-2.929 3.787-4.101-2.55 8.997-14.432z" class="C"/><path d="M293.259 180.317a5.59 5.59 0 0 0-2.385.99 6.22 6.22 0 0 0-1.779 2.002c-.452.802-.739 1.703-.839 2.639a7.05 7.05 0 0 0 .259 2.78l-10.169 9.644 3.842 8.2 14.186-13.839c1.342-.598 2.437-1.715 3.078-3.139s.782-3.055.398-4.585-1.267-2.854-2.481-3.718-2.677-1.212-4.11-.974h0z" class="F"/><g class="C"><path d="M283.019 213.479c-3.393 5.629-10.995 11.065-22.279 15.885-.622.273-1.29.402-1.96.378s-1.328-.2-1.933-.518c-4.258-2.123-6.987-10.016-7.243-10.781l-8.247-12.189c-.147-.177-4.003-4.973-3.562-9.687.099-.988.393-1.94.86-2.792s1.097-1.583 1.847-2.143c6.243-5.071 20.234 12.539 22.05 14.881l9.131-6.096 6.654-3.252 5.371-7.161 7.562 8.472-6.801 11.855c-.363 1.111-.85 2.169-1.45 3.148zm-23.718 21.596s19.54 34.102 16 37.981-9.049 4.897-9.049 4.897l-12.192-17.309 5.241-25.569z"/><path d="M242.024 188.501l9.209 6.826c4.281 3.173 7.5 7.788 9.171 13.146a28.39 28.39 0 0 1 .085 16.546l-2.593 8.634-15.872-45.152zm-16.285 93.088l-1.231 4.698-4.202 56.66-20.99 42.859 10.018 7.839 28.623-40.768 11.322-40.48 17.779 89.611 13.358-1.045-9.278-124.244-17.603-34.972-27.796 39.842z"/></g><path d="M240.457 190.218l12.818 11.477c2.813 2.519 4.839 5.936 5.795 9.776.434 1.744.64 3.547.613 5.354l-.382 24.922 11.752 34.411s-31.861 13.188-36.11 1.552 5.514-87.492 5.514-87.492z" class="E"/><path d="M244.291 283.75l-20.047.075-.252-.055v-10.489l3.871-18.843c-.452-5.85-1.512-13.564-1.416-20.169.347-23.873-.724-47.193-.724-47.193l8.424-8.519 3.827 2.728 7.099 7.778c8.252 22.249 14.8 43.195 14.841 44.541l.519 23.161-2.125 9.309c-9.608 7.431-.829 17.676-14.017 17.676z" class="C"/><path opacity=".2" d="M229.293 207.874l-1.935 13.232 13.099 5.919-11.164-19.151z" fill="#000"/><path d="M242.489 176.074c7.083 0 12.825-6.291 12.825-14.051s-5.742-14.051-12.825-14.051-12.825 6.291-12.825 14.051 5.742 14.051 12.825 14.051z" class="F"/><path opacity=".2" d="M221 233.318c3.413 4.33 8.043 7.295 13.162 8.428s10.436.372 15.116-2.166l2.791-1.514L221 233.318z" fill="#000"/><path d="M265.628 230.083c-.572-.704-1.278-1.262-2.069-1.635a5.43 5.43 0 0 0-2.505-.523c-.86.028-1.704.263-2.473.688s-1.442 1.028-1.974 1.769l-12.949-3.983-4.129 8.031 18.359 5.343c1.195.897 2.649 1.283 4.086 1.084s2.758-.968 3.712-2.163 1.475-2.73 1.464-4.317-.552-3.115-1.522-4.294h0z" class="F"/><g class="C"><path d="M234.727 238.996c-6.157 0-14.487-3.955-24.376-11.614-.551-.419-1.017-.958-1.368-1.584a5.65 5.65 0 0 1-.671-2.052c-.729-5.063 3.778-11.908 4.22-12.564l4.739-14.257c.054-.231 1.581-6.4 5.415-8.594a5.85 5.85 0 0 1 2.6-.753 5.8 5.8 0 0 1 2.65.508c7.302 2.913 1.6 25.409.818 28.359l9.674 4.989 6.144 4.291 8.414.964-2.285 11.583-12.777.315c-1.047.28-2.12.417-3.197.409zm23.141-86.216c-1.026 1.463-4.563 2.757-8.764 3.801l.006-.287c-.021-1.464-.187-2.921-.496-4.345-.291 1.744-.903 3.405-1.799 4.882l-.208.331c-3.604.779-7.416 1.382-10.402 1.786 2.053 8.103 9.926 14.75 9.073 19.676l-23.066 5.162c.142-2.047-.007-4.106-.443-6.103-.441 2.636-1.607 5.06-3.342 6.949l-1.959.441-.584-3.155c-5.06-13.315 1.993-26.947 13.549-33.999 2.061-3.384 5.26-5.736 8.899-6.544l2.879-.647c1.816-.407 3.688-.418 5.508-.033a13.45 13.45 0 0 1 5.099 2.279 14.83 14.83 0 0 1 3.915 4.244c1.038 1.682 1.764 3.572 2.135 5.562z"/></g><path d="M312.969 407.517l.341-8.402c3.556-2.083 7.522-3.183 11.553-3.205-5.548 4.971-4.855 14.552-8.617 21.236-1.188 2.075-2.787 3.83-4.678 5.136s-4.026 2.128-6.247 2.407l-4.644 3.115a29.89 29.89 0 0 1 .412-11.715c.908-3.827 2.563-7.392 4.85-10.45a25.16 25.16 0 0 1 4.432-4.512c1.112 3.213 2.598 6.39 2.598 6.39z" class="H"/><path d="M324.226 428H162.525a.81.81 0 0 1-.595-.271c-.157-.174-.246-.408-.246-.653s.089-.479.246-.652a.81.81 0 0 1 .595-.271h161.701c.111-.001.221.023.324.069s.196.115.274.2a.94.94 0 0 1 .184.3c.042.113.064.233.064.354a1.02 1.02 0 0 1-.064.355c-.043.112-.105.214-.184.299a.85.85 0 0 1-.274.201c-.103.046-.213.069-.324.069z" class="G"/></g><defs><clipPath id="A"><path d="M0 0h609v428H0z" class="D"/></clipPath><path id="B" d="M535.465 170.846h-84.68c-1.697 0-3.072 1.507-3.072 3.366v4.2c0 1.859 1.375 3.366 3.072 3.366h84.68c1.697 0 3.072-1.507 3.072-3.366v-4.2c0-1.859-1.375-3.366-3.072-3.366z"/><path id="C" d="M442.292 97.276c1.895 0 3.431-1.721 3.431-3.843s-1.536-3.843-3.431-3.843-3.431 1.721-3.431 3.843 1.536 3.843 3.431 3.843z"/><path id="D" d="M558.462 93.466h-7.679a.56.56 0 0 0-.404.191c-.107.119-.166.279-.166.446s.059.327.166.446a.56.56 0 0 0 .404.191h7.679c.152-.003.297-.072.403-.191a.67.67 0 0 0 .167-.446.67.67 0 0 0-.167-.446c-.106-.119-.251-.188-.403-.191z"/><path id="E" d="M164.063 215.114H93.351c-1.697 0-3.072 1.507-3.072 3.366v5.246c0 1.859 1.375 3.366 3.072 3.366h70.712c1.697 0 3.072-1.507 3.072-3.366v-5.246c0-1.859-1.375-3.366-3.072-3.366z"/></defs></svg>